<svg width="340" height="50" viewBox="0 0 340 50" fill="none" xmlns="http://www.w3.org/2000/svg">
<path d="M0 41.3946C0 37.1555 3.32218 33.7188 7.41997 33.7188H39.1099C43.2077 33.7188 46.5299 37.1555 46.5299 41.3946C46.5299 45.6337 43.2077 49.0704 39.1099 49.0704H7.41997C3.32218 49.0704 0 45.6337 0 41.3946Z" fill="url(#paint0_linear_125_5054)"></path>
<path d="M39.1163 49.0708C35.0185 49.0708 31.6963 45.634 31.6963 41.3949V8.60551C31.6898 4.36643 35.012 0.929688 39.1163 0.929688C43.2141 0.929688 46.5362 4.36643 46.5362 8.60551V41.3882C46.5362 45.6273 43.2141 49.0641 39.1163 49.0641V49.0708Z" fill="url(#paint1_linear_125_5054)"></path>
<path d="M0 8.60552C0 4.36643 3.32218 0.929688 7.41997 0.929688H39.1099C43.2077 0.929688 46.5299 4.36643 46.5299 8.60552C46.5299 12.8446 43.2077 16.2813 39.1099 16.2813H7.41997C3.32218 16.288 0 12.8513 0 8.60552Z" fill="url(#paint2_linear_125_5054)"></path>
<path d="M7.41997 33.7124H14.8399V8.60552C14.8399 4.36643 11.5178 0.929688 7.41997 0.929688C3.32218 0.929687 0 4.36643 0 8.60552V41.3883C0 37.1492 3.32218 33.7124 7.41997 33.7124Z" fill="url(#paint3_linear_125_5054)"></path>
<path d="M80.9216 26.2895H67.3977V12.6026H80.9216V26.2895ZM77.0676 15.791H71.2517V23.101H77.0792V15.791H77.0676ZM75.3379 35.377H90.1271V38.621H71.4375V29.2335H75.3495V35.3659L75.3379 35.377ZM89.6628 30.8666H85.7856V10.9473H89.6628V30.8666Z" fill="black"></path>
<path d="M93.3313 22.0557H97.3014V25.9107H93.3313V22.0557Z" fill="black"></path>
<path d="M101.04 24.7563H105.973V19.3127H109.85V24.7008C111.824 24.6786 113.519 24.6341 114.935 24.5564C116.351 24.4786 117.616 24.3786 118.719 24.2564L118.998 27.4782C118.15 27.5782 117.187 27.667 116.084 27.7337C114.981 27.8003 113.716 27.8559 112.265 27.9003C110.814 27.9448 109.165 27.967 107.32 27.9892C105.474 28.0114 103.373 28.0225 101.04 28.0225V24.7786V24.7563ZM116.932 12.336V16.402C116.932 16.802 116.92 17.2686 116.885 17.7907C116.85 18.3129 116.815 18.8572 116.757 19.4127C116.711 19.9793 116.641 20.5347 116.56 21.1013C116.479 21.6679 116.374 22.1789 116.247 22.6344L112.486 22.1789C112.706 21.1347 112.869 20.1459 112.961 19.2016C113.054 18.2573 113.101 17.4685 113.101 16.8242V15.6244H102.688V12.336H116.92H116.932ZM109.165 35.4659H124.756V38.7099H105.253V30.2H109.165V35.4659ZM123.978 19.1572H127.762V22.4678H123.978V31.6998H120.124V10.9473H123.978V19.1572Z" fill="black"></path>
<path d="M141.263 13.5683H147.636V16.7012H131.128V13.5683H137.385V10.5576H141.263V13.5683ZM139.347 27.1663C138.256 27.1663 137.293 27.0552 136.457 26.833C135.609 26.6108 134.901 26.3109 134.332 25.9109C133.752 25.5221 133.322 25.0555 133.021 24.5333C132.719 24.0112 132.579 23.4224 132.579 22.8003V21.9004C132.579 21.2783 132.73 20.7006 133.021 20.1673C133.311 19.6341 133.752 19.1786 134.332 18.7786C134.913 18.3898 135.621 18.0787 136.457 17.8565C137.293 17.6344 138.268 17.5233 139.347 17.5233C140.427 17.5233 141.402 17.6344 142.238 17.8565C143.085 18.0787 143.793 18.3787 144.362 18.7786C144.943 19.1675 145.372 19.6341 145.674 20.1673C145.976 20.7006 146.115 21.2783 146.115 21.9004V22.8003C146.115 23.4224 145.964 24.0001 145.674 24.5333C145.384 25.0666 144.943 25.5221 144.362 25.9109C143.782 26.2998 143.074 26.6108 142.238 26.833C141.39 27.0552 140.427 27.1663 139.347 27.1663ZM139.347 20.4562C138.314 20.4562 137.548 20.6228 137.026 20.9561C136.503 21.2894 136.236 21.6671 136.236 22.0893V22.6336C136.236 23.0558 136.492 23.4335 137.026 23.7668C137.56 24.1001 138.326 24.2667 139.347 24.2667C140.369 24.2667 141.147 24.1001 141.669 23.7668C142.191 23.4335 142.458 23.0558 142.458 22.6336V22.0893C142.458 21.6671 142.191 21.2894 141.669 20.9561C141.147 20.6228 140.369 20.4562 139.347 20.4562ZM154.81 28.2772V38.9868H136.573V28.2772H140.427V30.6213H150.967V28.2772H154.821H154.81ZM150.956 35.9206V33.6987H140.415V35.9206H150.956ZM150.956 25.4221H147.45V22.267H150.956V20.645H147.45V17.4899H150.956V10.9464H154.81V27.0108H150.956V25.4221Z" fill="black"></path>
<path d="M164.271 24.0342C166.43 24.0342 168.426 24.012 170.284 23.9565C172.13 23.9009 173.999 23.7898 175.891 23.6121L176.227 26.7449C175.345 26.8449 174.393 26.9227 173.383 26.9894C172.362 27.0449 171.224 27.0893 169.959 27.1227C168.693 27.156 167.289 27.1782 165.733 27.1893C164.178 27.1893 162.425 27.2004 160.451 27.2004V18.2018H168.984V15.3688H160.451V12.2137H172.803V21.2346H164.271V24.0342ZM164.12 29.3557H183.1V39.2876H179.222V32.5441H164.131V29.3557H164.12ZM179.246 22.4678H174.66V19.2794H179.246V17.4463H174.66V14.2579H179.246V10.9473H183.1V28.1003H179.246V22.4789V22.4678Z" fill="black"></path>
<path d="M195.463 13.358H210.739V16.6131H205.191V19.8015C205.191 20.3792 205.225 20.9125 205.283 21.3791C205.342 21.8457 205.458 22.3012 205.609 22.7122C205.759 23.1344 205.98 23.5565 206.27 23.9787C206.56 24.4008 206.932 24.8563 207.408 25.334C208.07 26.0339 208.778 26.7561 209.544 27.5004C210.31 28.2447 211.088 28.9557 211.866 29.6334L209.37 32.1664C208.708 31.5665 208.058 30.9443 207.396 30.3111C206.735 29.6778 206.119 29.0779 205.55 28.4891C204.958 27.9114 204.448 27.3782 204.041 26.9116C203.635 26.445 203.368 26.0895 203.275 25.8451H203.217C203.078 26.1228 202.776 26.5228 202.323 27.0449C201.871 27.567 201.395 28.0892 200.872 28.6113C200.292 29.189 199.7 29.7889 199.085 30.4C198.469 31.011 197.726 31.6998 196.867 32.4552L194.313 29.9C195.997 28.4336 197.517 26.9782 198.876 25.534C199.328 25.0341 199.711 24.5675 200.013 24.1453C200.327 23.7232 200.57 23.2899 200.756 22.8566C200.942 22.4122 201.07 21.9457 201.139 21.4568C201.209 20.968 201.244 20.4125 201.244 19.7904V16.602H195.451V13.3469L195.463 13.358ZM218.192 38.932H214.28V10.9473H218.192V38.9209V38.932Z" fill="black"></path>
<path d="M222.046 23.3121C224.402 23.3121 226.492 23.3121 228.28 23.2788C230.079 23.2566 231.693 23.2343 233.12 23.1899C234.548 23.1455 235.825 23.101 236.951 23.0455C238.077 22.9788 239.145 22.9011 240.155 22.8011L240.434 25.9562C239.447 26.0784 238.321 26.1784 237.056 26.245C235.79 26.3117 234.304 26.3672 232.61 26.4117V30.0778H228.756V26.4672C227.746 26.4894 226.689 26.5005 225.586 26.5005H222.046V23.3121ZM231.101 22.1345C230.067 22.1345 229.127 22.0123 228.256 21.779C227.386 21.5346 226.62 21.2013 225.981 20.768C225.343 20.3348 224.82 19.8126 224.46 19.2016C224.089 18.5906 223.903 17.924 223.903 17.2019V16.3576C223.903 15.6355 224.089 14.9689 224.46 14.3579C224.832 13.7469 225.343 13.2247 225.981 12.7914C226.631 12.3582 227.386 12.0249 228.256 11.7805C229.127 11.5361 230.079 11.425 231.101 11.425C232.122 11.425 233.051 11.5472 233.933 11.7805C234.815 12.0249 235.581 12.3582 236.231 12.7914C236.882 13.2247 237.392 13.7469 237.752 14.3579C238.124 14.9689 238.309 15.6355 238.309 16.3576V17.2019C238.309 17.924 238.124 18.5906 237.752 19.2016C237.381 19.8126 236.87 20.3348 236.231 20.768C235.581 21.2013 234.815 21.5346 233.933 21.779C233.051 22.0234 232.11 22.1345 231.101 22.1345ZM230.613 35.4659H246.226V38.7099H226.701V31.1554H230.613V35.4548V35.4659ZM231.101 14.5245C230.056 14.5245 229.197 14.7245 228.547 15.1133C227.885 15.5022 227.56 15.991 227.56 16.5687V16.9908C227.56 17.5685 227.885 18.0573 228.547 18.4462C229.208 18.835 230.056 19.035 231.101 19.035C232.145 19.035 233.004 18.835 233.654 18.4462C234.316 18.0573 234.641 17.5685 234.641 16.9908V16.5687C234.641 15.991 234.316 15.5022 233.654 15.1133C232.993 14.7245 232.145 14.5245 231.101 14.5245ZM236.22 27.4004H241.885V10.9473H245.762V32.5441H241.885V30.4666H236.22V27.4004Z" fill="black"></path>
<path d="M283.908 23.1777V24.9775H258.032V23.1777H283.908ZM280.855 11.835V13.5791H276.815V18.9895H280.971V20.7337H260.946V18.9895H265.102V13.5791H261.062V11.835H280.843H280.855ZM280.054 27.5438V33.9206H263.976V36.8091H280.89V38.5866H261.886V32.1764H277.964V29.3213H261.736V27.5438H280.065H280.054ZM267.238 19.0006H274.691V13.5791H267.238V18.9895V19.0006Z" fill="black"></path>
<path d="M295.946 18.6449V14.701H287.785V12.8346H298.07V20.4446H289.909V24.3885C291.024 24.3885 292.022 24.3885 292.928 24.3552C293.833 24.3329 294.68 24.3107 295.481 24.2663C296.282 24.2219 297.049 24.1663 297.792 24.0996C298.535 24.033 299.277 23.9441 300.044 23.8441L300.287 25.6772C299.463 25.7772 298.651 25.8661 297.838 25.9438C297.025 26.0216 296.143 26.0882 295.168 26.1216C294.205 26.166 293.125 26.1882 291.929 26.2104C290.734 26.2327 289.352 26.2438 287.773 26.2438V18.6338H295.934L295.946 18.6449ZM299.858 27.9657H302.017V29.921C302.017 30.5431 302.075 31.0764 302.191 31.5208C302.307 31.9652 302.493 32.354 302.748 32.7095C303.004 33.065 303.34 33.3761 303.747 33.6538C304.153 33.9315 304.664 34.2204 305.256 34.5314C306.057 34.9314 306.997 35.3647 308.065 35.8201C309.133 36.2756 310.131 36.6978 311.048 37.0533L310.155 38.7642C309.145 38.3642 308.146 37.931 307.136 37.4532C306.126 36.9866 305.279 36.5756 304.583 36.2312C302.528 35.2313 301.321 34.3537 300.949 33.6094C300.578 34.3537 299.37 35.2202 297.316 36.2312C296.619 36.5756 295.76 36.9755 294.762 37.4532C293.752 37.9198 292.753 38.3642 291.744 38.7642L290.815 37.0533C291.268 36.8755 291.755 36.6756 292.278 36.4645C292.8 36.2534 293.311 36.0423 293.821 35.8201C294.321 35.598 294.82 35.3758 295.296 35.1536C295.772 34.9314 296.224 34.7203 296.631 34.5203C297.2 34.2426 297.687 33.9538 298.093 33.676C298.5 33.3983 298.825 33.0761 299.092 32.7317C299.359 32.3762 299.556 31.9763 299.672 31.5319C299.8 31.0764 299.858 30.5431 299.858 29.921V27.9657ZM304.199 18.3116H308.297V11.1904H310.422V29.1767H308.297V20.2113H304.199V26.677H302.075V11.5459H304.199V18.3116Z" fill="black"></path>
<path d="M336.959 12.0791V13.8233H332.919V19.7224H337.075V21.4666H328.136V24.5995H340V26.3992H314.125V24.5995H325.989V21.4666H317.05V19.7224H321.206V13.8233H317.166V12.0791H336.947H336.959ZM317.921 29.2877H336.216V38.3975H317.921V29.2877ZM320.01 36.5089H334.115V31.1874H320.01V36.5089ZM323.365 19.7224H330.76V13.8233H323.365V19.7224Z" fill="black"></path>
<defs>
<linearGradient id="paint0_linear_125_5054" x1="0" y1="41.3879" x2="46.5364" y2="41.3879" gradientUnits="userSpaceOnUse">
<stop stop-color="#2467C9"></stop>
<stop offset="1" stop-color="#2E3192"></stop>
</linearGradient>
<linearGradient id="paint1_linear_125_5054" x1="39.1163" y1="49.0708" x2="39.1163" y2="0.929688" gradientUnits="userSpaceOnUse">
<stop stop-color="#0084FF"></stop>
<stop offset="0.99" stop-color="#2467C9"></stop>
</linearGradient>
<linearGradient id="paint2_linear_125_5054" x1="0" y1="8.60552" x2="46.5364" y2="8.60552" gradientUnits="userSpaceOnUse">
<stop stop-color="#2467C9"></stop>
<stop offset="1" stop-color="#2E3192"></stop>
</linearGradient>
<linearGradient id="paint3_linear_125_5054" x1="7.42643" y1="0.929687" x2="7.42643" y2="41.3883" gradientUnits="userSpaceOnUse">
<stop stop-color="#0084FF"></stop>
<stop offset="0.99" stop-color="#2467C9"></stop>
</linearGradient>
</defs>
</svg>