<svg width="149" height="99" viewBox="0 0 149 99" fill="none" xmlns="http://www.w3.org/2000/svg">
<path d="M43 12.3953V0C33.67 0 25.5693 2.88182 21.5 7.10906C17.4307 2.88182 9.32995 0 0 0V12.3953C9.32995 12.3953 17.4307 15.2728 21.5 19.5C17.4307 23.7272 9.32995 26.6047 0 26.6047V39C9.32995 39 17.4307 36.1182 21.5 31.8909C25.5693 36.1182 33.67 39 43 39V26.6047C33.67 26.6047 25.5693 23.7272 21.5 19.5C25.5693 15.2728 33.67 12.3953 43 12.3953Z" fill="#EC5E1F"/>
<path d="M20.6094 73.9902C19.5442 73.3601 18.4391 73.0184 17.2869 72.9579V72.6375C18.3485 72.3955 19.3087 71.9861 20.1602 71.413C21.0116 70.8399 21.6928 70.0924 22.2037 69.1705C22.7146 68.2485 22.9682 67.1344 22.9682 65.8315C22.9682 64.244 22.5805 62.8272 21.8088 61.5814C21.037 60.3355 19.8703 59.3495 18.3123 58.6198C16.7542 57.8901 14.8013 57.5234 12.457 57.5234H0V89.51H13.1345C15.6274 89.51 17.6891 89.1327 19.3304 88.371C20.9682 87.6128 22.1965 86.5734 23.0117 85.2563C23.827 83.9392 24.2364 82.4513 24.2364 80.7926C24.2364 79.1338 23.8958 77.7954 23.2182 76.6492C22.5407 75.503 21.6711 74.6166 20.6058 73.9866L20.6094 73.9902ZM5.83717 62.2897H11.8483C13.5947 62.2897 14.9136 62.692 15.8049 63.4929C16.6926 64.2938 17.1383 65.319 17.1383 66.5613C17.1383 67.5046 16.9028 68.3233 16.4281 69.0103C15.9535 69.6973 15.3085 70.2277 14.4933 70.5979C13.678 70.9716 12.7505 71.1567 11.7178 71.1567H5.84079V62.2897H5.83717ZM16.8847 83.5014C15.9317 84.3166 14.3737 84.7259 12.2178 84.7259H5.83717V75.3001H12.4135C13.6237 75.3001 14.6672 75.5208 15.5477 75.9657C16.4281 76.4107 17.1093 77.0158 17.5912 77.7811C18.0731 78.5464 18.3123 79.4079 18.3123 80.369C18.3123 81.6433 17.834 82.6863 16.881 83.5014H16.8847Z" fill="#EC5E1F"/>
<path d="M38.7297 65.1875C37.3311 65.1875 36.0846 65.5648 34.994 66.3159C33.8998 67.067 33.1353 68.1384 32.7005 69.5267H32.4396V65.5114H26.9321V89.5138H32.6135V75.3893C32.6135 74.3748 32.849 73.4743 33.3237 72.6947C33.7983 71.9151 34.4541 71.3029 35.2911 70.8579C36.1281 70.413 37.0738 70.1923 38.1209 70.1923C38.6318 70.1923 39.1463 70.2208 39.6717 70.2777C40.1971 70.3347 40.5739 70.3988 40.8094 70.47V65.3406C40.5341 65.2978 40.1971 65.2623 39.8022 65.2338C39.4108 65.2053 39.0521 65.1911 38.7333 65.1911L38.7297 65.1875Z" fill="#EC5E1F"/>
<path d="M46.8243 56C45.9221 56 45.1467 56.299 44.4981 56.8899C43.8495 57.4844 43.5234 58.2105 43.5234 59.0684C43.5234 59.9262 43.8495 60.6132 44.4981 61.2148C45.1467 61.8164 45.9221 62.1154 46.8243 62.1154C47.7265 62.1154 48.5236 61.8164 49.1722 61.2148C49.8208 60.6132 50.1433 59.8906 50.1433 59.047C50.1433 58.2034 49.8171 57.4844 49.1722 56.8899C48.5236 56.2954 47.741 56 46.8243 56Z" fill="#EC5E1F"/>
<path d="M49.6648 65.5117H43.9834V89.5141H49.6648V65.5117Z" fill="#EC5E1F"/>
<path d="M69.4373 69.4837H69.1982C68.9228 68.9106 68.5097 68.2948 67.9626 67.6363C67.4155 66.9777 66.68 66.4082 65.756 65.9312C64.8321 65.4507 63.64 65.2122 62.1834 65.2122C60.3174 65.2122 58.6253 65.6856 57.1035 66.6289C55.5817 67.5722 54.3715 68.964 53.4766 70.8043C52.5816 72.6446 52.1323 74.8943 52.1323 77.5569C52.1323 80.2195 52.5707 82.43 53.444 84.2774C54.3172 86.1248 55.5165 87.5309 57.0383 88.4955C58.5601 89.4602 60.2848 89.9443 62.2052 89.9443C63.6182 89.9443 64.785 89.7129 65.7017 89.2466C66.6184 88.7803 67.3575 88.2179 67.9191 87.5629C68.4807 86.9044 68.9047 86.2886 69.1982 85.7155H69.5496V89.5136H75.1223V57.5234H69.4409V69.4801L69.4373 69.4837ZM68.8684 81.6326C68.4155 82.8073 67.7597 83.7186 66.901 84.37C66.0423 85.0214 64.9915 85.3453 63.7523 85.3453C62.5131 85.3453 61.4189 85.0071 60.5493 84.3272C59.6833 83.6474 59.0311 82.7183 58.5927 81.5365C58.1543 80.3547 57.9369 79.0199 57.9369 77.532C57.9369 76.0441 58.1543 74.7163 58.5927 73.5488C59.0311 72.3812 59.6797 71.4664 60.5384 70.8008C61.3971 70.1351 62.4697 69.8041 63.7487 69.8041C65.0277 69.8041 66.0386 70.128 66.9046 70.7687C67.7706 71.413 68.4264 72.31 68.8721 73.4633C69.3177 74.6166 69.5388 75.9729 69.5388 77.532C69.5388 79.0911 69.3141 80.458 68.8612 81.6326H68.8684Z" fill="#EC5E1F"/>
<path d="M95.7716 69.4834H95.4673C95.1738 68.9103 94.7535 68.291 94.1991 67.6253C93.6447 66.9597 92.9019 66.3901 91.9707 65.9203C91.0395 65.4468 89.8511 65.2119 88.409 65.2119C86.5285 65.2119 84.8292 65.6853 83.3074 66.6286C81.7856 67.5719 80.5718 68.9531 79.6696 70.772C78.7674 72.591 78.3145 74.8157 78.3145 77.4498C78.3145 80.0839 78.7637 82.2233 79.6587 83.9532C80.5537 85.6867 81.7639 86.9824 83.2856 87.851C84.8074 88.716 86.5032 89.1502 88.3655 89.1502C89.7786 89.1502 90.9417 88.9438 91.8512 88.5273C92.7606 88.1108 93.4853 87.6018 94.0252 86.9931C94.565 86.3844 94.9709 85.7935 95.2499 85.2204H95.7317V89.7518C95.7317 91.4675 95.1991 92.7312 94.1375 93.5392C93.0759 94.3473 91.6591 94.7531 89.8982 94.7531C88.717 94.7531 87.746 94.6 86.9814 94.2903C86.2169 93.9806 85.6046 93.5926 85.1444 93.1192C84.6842 92.6458 84.3255 92.1901 84.061 91.7452L79.2529 93.4396C79.6623 94.5003 80.3254 95.4472 81.253 96.2837C82.1769 97.1202 83.3654 97.7823 84.8147 98.2699C86.264 98.7576 87.9634 98.9997 89.9163 98.9997C92.1157 98.9997 94.0759 98.6579 95.7933 97.9816C97.5108 97.3017 98.8659 96.2623 99.8587 94.867C100.848 93.4716 101.344 91.706 101.344 89.5738V65.5109H95.7716V69.4834ZM95.0723 81.3547C94.6194 82.4582 93.9636 83.2983 93.1048 83.8785C92.2461 84.4587 91.1954 84.747 89.9598 84.747C88.7242 84.747 87.6264 84.4444 86.7568 83.8358C85.8908 83.2271 85.235 82.3728 84.7893 81.2693C84.3437 80.1658 84.1226 78.8808 84.1226 77.4036C84.1226 75.9263 84.34 74.6449 84.7785 73.5058C85.2169 72.3667 85.8691 71.4661 86.735 70.8005C87.601 70.1348 88.6771 69.8038 89.9598 69.8038C91.2425 69.8038 92.2679 70.1242 93.1302 70.7578C93.9889 71.3949 94.6411 72.2813 95.0868 73.4204C95.5325 74.5594 95.7535 75.8872 95.7535 77.4036C95.7535 78.9199 95.5288 80.2512 95.0759 81.3547H95.0723Z" fill="#EC5E1F"/>
<path d="M123.493 68.1094C122.45 67.1234 121.258 66.3937 119.91 65.9203C118.562 65.4468 117.145 65.2119 115.66 65.2119C113.33 65.2119 111.301 65.7387 109.573 66.7888C107.844 67.8425 106.515 69.2983 105.573 71.1565C104.634 73.0181 104.163 75.1859 104.163 77.6598C104.163 80.1338 104.641 82.3407 105.594 84.1846C106.547 86.032 107.91 87.463 109.681 88.4775C111.45 89.492 113.566 90.001 116.029 90.001C117.848 90.001 119.472 89.734 120.892 89.1965C122.312 88.659 123.497 87.9079 124.443 86.9433C125.388 85.9786 126.059 84.8502 126.454 83.5617L121.233 82.508C120.986 83.1808 120.613 83.7503 120.117 84.2131C119.62 84.6794 119.033 85.0282 118.356 85.2667C117.678 85.5052 116.924 85.6227 116.095 85.6227C114.841 85.6227 113.743 85.3593 112.794 84.8289C111.848 84.2985 111.113 83.5118 110.587 82.4689C110.116 81.5291 109.859 80.3972 109.812 79.0766H126.823V77.3181C126.823 75.2144 126.53 73.399 125.939 71.8755C125.349 70.352 124.533 69.0954 123.493 68.1094ZM112.489 70.4588C113.363 69.8786 114.428 69.5902 115.682 69.5902C116.935 69.5902 117.979 69.875 118.816 70.4481C119.653 71.0212 120.283 71.8185 120.707 72.8401C121.008 73.5699 121.2 74.385 121.287 75.2785H109.837C109.913 74.3743 110.131 73.5414 110.493 72.7761C110.953 71.8114 111.62 71.039 112.493 70.4588H112.489Z" fill="#EC5E1F"/>
<path d="M141.885 65.1875C140.487 65.1875 139.24 65.5648 138.15 66.3159C137.056 67.067 136.291 68.1384 135.856 69.5267H135.595V65.5114H130.088V89.5138H135.769V75.3893C135.769 74.3748 136.005 73.4743 136.479 72.6947C136.954 71.9151 137.61 71.3029 138.447 70.8579C139.284 70.413 140.23 70.1923 141.277 70.1923C141.788 70.1923 142.302 70.2208 142.827 70.2777C143.353 70.3347 143.73 70.3988 143.965 70.47V65.3406C143.69 65.2978 143.353 65.2623 142.962 65.2338C142.567 65.2053 142.212 65.1911 141.889 65.1911L141.885 65.1875Z" fill="#EC5E1F"/>
<path d="M144.136 80.6328C141.734 80.6328 139.788 82.5443 139.788 84.9043C139.788 87.2644 141.734 89.1759 144.136 89.1759C146.538 89.1759 148.484 87.2644 148.484 84.9043C148.484 82.5443 146.538 80.6328 144.136 80.6328Z" fill="#EC5E1F"/>
</svg>
