<svg width="4568" height="740" viewBox="0 0 4568 740" fill="none" xmlns="http://www.w3.org/2000/svg">
<path d="M4493.4 346.457L4417.97 322.825L4346.19 300.342L4272.59 277.292L4270.75 276.71L4198.97 254.226L4197.13 253.644L4125.35 231.161L4123.51 230.579L4051.73 208.095L4049.89 207.513L3976.29 184.448L3904.51 161.964L3830.92 138.914L3829.08 138.332L3755.48 115.282L3683.7 92.7981L3608.27 69.1659L3536.49 46.6824L3462.89 23.6322L3461.05 23.0502L3387.53 0.0153157L3313.94 23.0808L3240.34 0.0153157L3166.75 23.0655L3093.12 0.0153157L3019.53 23.0808L2945.93 0.0153157L2872.34 23.0655L2798.74 0.0153157L2725.15 23.0655L2651.53 0.0153157L2577.93 23.0808L2504.31 0.0153157L2430.72 23.0655L2357.1 0.0153157L2283.5 23.0808L2209.9 0.0153157L2136.31 23.0655L2062.71 0L1989.12 23.0655L1915.5 0.0153157L1841.9 23.0808L1768.28 0.0153157L1694.69 23.0655L1621.09 0.0153157L1547.5 23.0808L1473.87 0.0153157L1400.28 23.0655L1326.68 0.0153157L1253.09 23.0655L1179.47 0.0153157L1105.87 23.0808L1104.03 23.6628L1032.25 46.1463L1030.41 46.7283L958.631 69.2118L956.789 69.7938L885.01 92.2774L883.168 92.8594L811.388 115.343L809.547 115.925L737.767 138.408L735.926 138.99L664.146 161.474L662.305 162.056L590.525 184.539L588.684 185.121L516.904 207.605L515.063 208.187L443.283 230.67L441.442 231.252L367.846 254.303L296.066 276.786L222.471 299.852L220.63 300.434L148.85 322.917L147.009 323.499L75.2289 345.983L73.3877 346.565L0 369.508L73.5952 392.558L75.4364 393.14L147.216 415.623L149.058 416.205L220.837 438.689L222.679 439.271L296.274 462.321L368.054 484.805L443.49 508.437L515.27 530.92L588.865 553.971L590.707 554.552L662.487 577.036L664.328 577.618L736.108 600.102L737.949 600.684L809.729 623.167L811.57 623.749L883.35 646.233L885.191 646.815L956.971 669.298L958.812 669.88L1030.59 692.364L1032.43 692.946L1106.03 715.996L1179.62 739.046L1253.22 715.996L1326.81 739.046L1400.41 715.98L1474 739.046L1547.6 715.996L1621.19 739.046L1694.79 715.98L1768.39 739.031L1841.98 715.965L1915.58 739.015L1989.17 715.965L2062.77 739.015L2136.36 715.95L2209.96 739L2283.55 715.95L2357.15 739.015L2430.74 715.95L2504.34 739L2577.93 715.95L2651.53 739L2725.12 715.935L2798.72 738.985L2872.31 715.919L2945.91 738.969L3019.5 715.919L3093.1 738.985L3166.69 715.919L3240.29 738.969L3313.88 715.919L3387.48 738.969L3461.08 715.904L3462.92 715.322L3534.7 692.838L3536.54 692.256L3608.32 669.773L3610.16 669.191L3681.94 646.707L3683.78 646.125L3755.56 623.642L3757.4 623.06L3829.18 600.576L3831.02 599.994L3902.8 577.511L3904.64 576.929L3976.42 554.445L3978.26 553.863L4050.04 531.38L4051.89 530.798L4123.67 508.314L4125.51 507.732L4197.29 485.249L4199.13 484.667L4270.91 462.183L4272.75 461.601L4344.53 439.118L4346.37 438.536L4418.15 416.052L4419.99 415.47L4491.77 392.987L4493.61 392.405L4567.21 369.339L4493.61 346.289L4493.4 346.457ZM3242.16 692.318L3313.94 669.834L3385.72 692.318L3313.94 714.801L3242.16 692.318ZM1547.47 714.801L1511.58 703.559L1475.69 692.318L1547.47 669.834L1619.25 692.318L1583.36 703.559L1547.47 714.801ZM1400.28 714.801L1364.39 703.559L1328.5 692.318L1400.28 669.834L1472.06 692.318L1436.17 703.559L1400.28 714.801ZM4416.13 369.508L4344.35 391.991L4272.57 369.508L4308.46 358.266L4344.35 347.024L4380.24 358.266L4416.13 369.508ZM222.653 347.024L294.433 369.508L222.653 391.991L150.873 369.508L222.653 347.024ZM1545.65 69.7632L1473.87 92.2467L1402.09 69.7632L1473.87 47.2797L1545.65 69.7632ZM2357.1 47.2797L2428.88 69.7632L2357.1 92.2467L2285.32 69.7632L2321.21 58.5215L2357.1 47.2797ZM2651.5 47.2797L2723.28 69.7632L2687.39 81.005L2651.5 92.2467L2579.72 69.7632L2615.61 58.5215L2651.5 47.2797ZM3164.9 69.7632L3093.12 92.2467L3021.34 69.7632L3093.12 47.2797L3164.9 69.7632ZM4268.94 369.508L4197.16 391.991L4125.38 369.508L4161.27 358.266L4197.16 347.024L4233.05 358.266L4268.94 369.508ZM3900.91 530.92L3829.13 553.404L3757.35 530.92L3829.13 508.437L3900.91 530.92ZM3313.94 668.685L3242.16 646.202L3313.94 623.718L3385.72 646.202L3313.94 668.685ZM811.466 531.487L883.246 553.971L811.466 576.454L739.686 553.971L811.466 531.487ZM739.686 507.855L775.576 496.613L811.466 485.371L883.246 507.855L811.466 530.338L739.686 507.855ZM628.36 472.981L592.47 461.739L628.36 450.497L664.25 439.256L736.03 461.739L664.25 484.223L628.36 472.981ZM445.28 415.623L517.059 393.14L588.839 415.623L552.949 426.865L517.059 438.107L445.28 415.623ZM1472.03 92.8134L1400.25 115.297L1328.47 92.8134L1400.25 70.3299L1472.03 92.8134ZM1694.69 70.3452L1766.47 92.8287L1694.69 115.312L1622.91 92.8287L1658.8 81.587L1694.69 70.3452ZM3387.53 93.3954L3423.42 104.637L3459.31 115.879L3387.53 138.362L3315.75 115.879L3351.64 104.637L3387.53 93.3954ZM4014.08 426.865L3978.19 415.623L4014.08 404.382L4049.97 393.14L4121.75 415.623L4049.97 438.107L4014.08 426.865ZM3462.97 530.92L3534.75 508.437L3606.53 530.92L3534.75 553.404L3462.97 530.92ZM3461.15 577.603L3532.93 600.086L3461.15 622.57L3389.37 600.086L3461.15 577.603ZM3459.31 577.036L3387.53 599.52L3315.75 577.036L3387.53 554.552L3459.31 577.036ZM2945.93 645.635L2874.15 623.152L2910.04 611.91L2945.93 600.668L3017.71 623.152L2945.93 645.635ZM809.625 300.342L737.845 322.825L666.065 300.342L737.845 277.858L809.625 300.342ZM885.061 231.743L956.841 254.226L885.061 276.71L813.281 254.226L885.061 231.743ZM1398.44 115.879L1326.66 138.362L1254.88 115.879L1326.66 93.3954L1398.44 115.879ZM1692.85 115.879L1621.07 138.362L1549.29 115.879L1621.07 93.3954L1692.85 115.879ZM4014.08 312.15L4049.97 300.908L4121.75 323.392L4049.97 345.875L3978.19 323.392L4014.08 312.15ZM2872.31 622.57L2800.53 600.086L2872.31 577.603L2944.09 600.086L2908.2 611.328L2872.31 622.57ZM1841.9 622.57L1770.12 600.086L1841.9 577.603L1877.79 588.844L1913.68 600.086L1877.79 611.328L1841.9 622.57ZM626.545 335.216L662.435 346.457L590.655 368.941L518.875 346.457L590.655 323.974L626.545 335.216ZM2944.09 138.929L2872.31 161.413L2800.53 138.929L2872.31 116.446L2944.09 138.929ZM2798.72 599.52L2726.94 577.036L2762.83 565.794L2798.72 554.552L2870.5 577.036L2834.61 588.278L2798.72 599.52ZM1990.93 577.036L2062.71 554.552L2134.49 577.036L2062.71 599.52L1990.93 577.036ZM1107.69 577.036L1179.47 554.552L1251.25 577.036L1179.47 599.52L1107.69 577.036ZM1143.58 519.679L1179.47 508.437L1251.25 530.92L1179.47 553.404L1107.69 530.92L1143.58 519.679ZM3166.72 576.454L3094.94 553.971L3166.72 531.487L3238.5 553.971L3202.61 565.212L3166.72 576.454ZM2064.53 553.971L2136.31 531.487L2208.09 553.971L2136.31 576.454L2064.53 553.971ZM1694.69 576.454L1622.91 553.971L1658.8 542.729L1694.69 531.487L1766.47 553.971L1730.58 565.212L1694.69 576.454ZM958.657 438.107L886.877 415.623L958.657 393.14L994.547 404.382L1030.44 415.623L994.547 426.865L958.657 438.107ZM811.466 438.107L739.686 415.623L811.466 393.14L847.356 404.382L883.246 415.623L847.356 426.865L811.466 438.107ZM666.091 392.573L737.871 370.09L809.651 392.573L737.871 415.057L666.091 392.573ZM1177.63 277.276L1105.85 299.76L1034.07 277.276L1105.85 254.793L1177.63 277.276ZM1181.31 231.161L1253.09 208.677L1324.87 231.161L1253.09 253.644L1181.31 231.161ZM1989.09 162.561L2060.87 185.045L2024.98 196.287L1989.09 207.528L1917.31 185.045L1989.09 162.561ZM3019.53 162.561L3091.31 185.045L3019.53 207.528L2947.75 185.045L3019.53 162.561ZM3166.72 530.338L3094.94 507.855L3166.72 485.371L3238.5 507.855L3166.72 530.338ZM2062.69 185.627L2134.47 208.11L2062.69 230.594L1990.91 208.11L2026.8 196.869L2062.69 185.627ZM3166.72 208.677L3238.5 231.161L3166.72 253.644L3094.94 231.161L3166.72 208.677ZM3680.12 369.508L3608.34 391.991L3536.56 369.508L3608.34 347.024L3644.23 358.266L3680.12 369.508ZM2432.53 530.92L2504.31 508.437L2576.09 530.92L2504.31 553.404L2432.53 530.92ZM2136.31 530.338L2100.42 519.097L2064.53 507.855L2136.31 485.371L2208.09 507.855L2172.2 519.097L2136.31 530.338ZM1841.9 530.338L1770.12 507.855L1806.01 496.613L1841.9 485.371L1913.68 507.855L1877.79 519.097L1841.9 530.338ZM1622.91 507.855L1694.69 485.371L1766.47 507.855L1694.69 530.338L1622.91 507.855ZM1398.44 300.342L1326.66 322.825L1254.88 300.342L1326.66 277.858L1398.44 300.342ZM2136.31 208.677L2208.09 231.161L2136.31 253.644L2064.53 231.161L2100.42 219.919L2136.31 208.677ZM3240.34 231.743L3312.12 254.226L3276.23 265.468L3240.34 276.71L3168.56 254.226L3204.45 242.984L3240.34 231.743ZM3242.16 231.161L3313.94 208.677L3385.72 231.161L3313.94 253.644L3242.16 231.161ZM1473.87 508.437L1545.65 530.92L1473.87 553.404L1402.09 530.92L1473.87 508.437ZM1475.72 507.855L1511.61 496.613L1547.5 485.371L1619.28 507.855L1547.5 530.338L1475.72 507.855ZM1107.71 346.457L1179.49 323.974L1251.27 346.457L1179.49 368.941L1107.71 346.457ZM2870.5 254.226L2798.72 276.71L2726.94 254.226L2798.72 231.743L2870.5 254.226ZM2945.93 231.743L2981.82 242.984L3017.71 254.226L2945.93 276.71L2874.15 254.226L2910.04 242.984L2945.93 231.743ZM3497.02 334.634L3461.13 345.875L3389.35 323.392L3461.13 300.908L3532.91 323.392L3497.02 334.634ZM2798.72 462.321L2870.5 484.805L2798.72 507.288L2726.94 484.805L2798.72 462.321ZM2506.15 231.161L2577.93 208.677L2649.71 231.161L2577.93 253.644L2542.04 242.402L2506.15 231.161ZM3459.31 346.457L3387.53 368.941L3315.75 346.457L3387.53 323.974L3459.31 346.457ZM3385.72 369.508L3349.83 380.749L3313.94 391.991L3242.16 369.508L3313.94 347.024L3385.72 369.508ZM2725.12 438.107L2653.34 415.623L2725.12 393.14L2796.9 415.623L2761.01 426.865L2725.12 438.107ZM1915.5 461.172L1879.61 449.931L1843.72 438.689L1915.5 416.205L1987.28 438.689L1915.5 461.172ZM1511.61 404.382L1547.5 393.14L1619.28 415.623L1583.39 426.865L1547.5 438.107L1475.72 415.623L1511.61 404.382ZM2615.64 242.984L2651.53 231.743L2723.31 254.226L2687.42 265.468L2651.53 276.71L2579.75 254.226L2615.64 242.984ZM3091.28 369.508L3019.5 391.991L2947.72 369.508L3019.5 347.024L3055.39 358.266L3091.28 369.508ZM2649.69 369.508L2613.8 380.749L2577.91 391.991L2542.02 380.749L2506.13 369.508L2577.91 347.024L2649.69 369.508ZM2430.72 391.991L2358.94 369.508L2430.72 347.024L2502.5 369.508L2430.72 391.991ZM1953.2 358.266L1989.09 347.024L2060.87 369.508L1989.09 391.991L1917.31 369.508L1953.2 358.266ZM2136.31 347.024L2172.2 358.266L2208.09 369.508L2136.31 391.991L2064.53 369.508L2100.42 358.266L2136.31 347.024ZM2428.88 346.457L2357.1 368.941L2285.32 346.457L2357.1 323.974L2428.88 346.457ZM2355.28 369.508L2283.5 391.991L2211.72 369.508L2283.5 347.024L2355.28 369.508ZM2062.69 370.09L2134.47 392.573L2062.69 415.057L1990.91 392.573L2062.69 370.09ZM2138.12 392.573L2209.9 370.09L2281.68 392.573L2209.9 415.057L2138.12 392.573ZM2430.72 345.875L2358.94 323.392L2430.72 300.908L2502.5 323.392L2430.72 345.875ZM2209.9 368.941L2138.12 346.457L2209.9 323.974L2281.68 346.457L2209.9 368.941ZM2134.47 346.457L2098.58 357.699L2062.69 368.941L1990.91 346.457L2062.69 323.974L2134.47 346.457ZM1915.5 368.941L1843.72 346.457L1915.5 323.974L1987.28 346.457L1915.5 368.941ZM1768.28 415.057L1696.5 392.573L1768.28 370.09L1840.06 392.573L1768.28 415.057ZM1621.09 370.09L1692.87 392.573L1621.09 415.057L1549.31 392.573L1621.09 370.09ZM1694.69 393.14L1766.47 415.623L1694.69 438.107L1622.91 415.623L1694.69 393.14ZM1841.9 393.14L1913.68 415.623L1841.9 438.107L1770.12 415.623L1841.9 393.14ZM1843.72 392.573L1915.5 370.09L1987.28 392.573L1915.5 415.057L1843.72 392.573ZM2136.31 393.14L2208.09 415.623L2136.31 438.107L2064.53 415.623L2136.31 393.14ZM2357.1 370.09L2428.88 392.573L2357.1 415.057L2285.32 392.573L2357.1 370.09ZM2432.53 392.573L2504.31 370.09L2576.09 392.573L2504.31 415.057L2432.53 392.573ZM2577.91 393.14L2649.69 415.623L2577.91 438.107L2506.13 415.623L2577.91 393.14ZM2615.64 403.815L2579.75 392.573L2651.53 370.09L2723.31 392.573L2651.53 415.057L2615.64 403.815ZM2653.34 369.508L2725.12 347.024L2796.9 369.508L2725.12 391.991L2653.34 369.508ZM2800.56 369.508L2872.34 347.024L2944.12 369.508L2872.34 391.991L2800.56 369.508ZM2981.8 357.699L2945.91 368.941L2874.13 346.457L2910.02 335.216L2945.91 323.974L3017.69 346.457L2981.8 357.699ZM2870.5 346.457L2798.72 368.941L2726.94 346.457L2798.72 323.974L2870.5 346.457ZM2725.12 345.875L2653.34 323.392L2725.12 300.908L2796.9 323.392L2725.12 345.875ZM2651.53 323.974L2723.31 346.457L2651.53 368.941L2615.64 357.699L2579.75 346.457L2615.64 335.216L2651.53 323.974ZM2504.31 368.941L2432.53 346.457L2504.31 323.974L2576.09 346.457L2504.31 368.941ZM2283.5 345.875L2211.72 323.392L2283.5 300.908L2355.28 323.392L2283.5 345.875ZM2209.9 322.825L2138.12 300.342L2209.9 277.858L2281.68 300.342L2209.9 322.825ZM2208.06 323.392L2136.28 345.875L2064.5 323.392L2136.28 300.908L2208.06 323.392ZM2060.87 323.392L2024.98 334.634L1989.09 345.875L1917.31 323.392L1989.09 300.908L2060.87 323.392ZM1913.66 369.508L1841.88 391.991L1770.1 369.508L1841.88 347.024L1913.66 369.508ZM1730.58 380.749L1694.69 391.991L1622.91 369.508L1658.8 358.266L1694.69 347.024L1766.47 369.508L1730.58 380.749ZM1917.34 415.623L1989.12 393.14L2060.9 415.623L1989.12 438.107L1917.34 415.623ZM2209.9 416.205L2281.68 438.689L2209.9 461.172L2138.12 438.689L2209.9 416.205ZM2283.5 438.107L2211.72 415.623L2283.5 393.14L2319.39 404.382L2355.28 415.623L2319.39 426.865L2283.5 438.107ZM2430.72 393.14L2502.5 415.623L2430.72 438.107L2358.94 415.623L2430.72 393.14ZM2726.96 392.573L2798.74 370.09L2870.52 392.573L2798.74 415.057L2726.96 392.573ZM2872.31 393.14L2944.09 415.623L2872.31 438.107L2800.53 415.623L2872.31 393.14ZM2874.15 392.573L2945.93 370.09L3017.71 392.573L2945.93 415.057L2874.15 392.573ZM3021.37 392.573L3093.15 370.09L3164.93 392.573L3093.15 415.057L3021.37 392.573ZM3093.12 368.941L3021.34 346.457L3093.12 323.974L3129.01 335.216L3164.9 346.457L3093.12 368.941ZM3091.28 323.392L3019.5 345.875L2947.72 323.392L3019.5 300.908L3091.28 323.392ZM2872.31 345.875L2800.53 323.392L2872.31 300.908L2944.09 323.392L2872.31 345.875ZM2944.09 277.276L2872.31 299.76L2800.53 277.276L2872.31 254.793L2944.09 277.276ZM2870.5 300.342L2834.61 311.583L2798.72 322.825L2762.83 311.583L2726.94 300.342L2798.72 277.858L2870.5 300.342ZM2725.12 299.76L2689.23 288.518L2653.34 277.276L2725.12 254.793L2796.9 277.276L2725.12 299.76ZM2723.28 300.342L2651.5 322.825L2579.72 300.342L2651.5 277.858L2723.28 300.342ZM2649.69 323.392L2577.91 345.875L2542.02 334.634L2506.13 323.392L2577.91 300.908L2649.69 323.392ZM2504.31 322.825L2432.53 300.342L2504.31 277.858L2576.09 300.342L2504.31 322.825ZM2428.88 300.342L2357.1 322.825L2285.32 300.342L2357.1 277.858L2428.88 300.342ZM2283.5 254.793L2355.28 277.276L2283.5 299.76L2211.72 277.276L2247.61 266.034L2283.5 254.793ZM2134.47 300.342L2062.69 322.825L1990.91 300.342L2062.69 277.858L2134.47 300.342ZM1841.9 300.908L1913.68 323.392L1841.9 345.875L1770.12 323.392L1806.01 312.15L1841.9 300.908ZM1840.06 346.457L1768.28 368.941L1696.5 346.457L1768.28 323.974L1840.06 346.457ZM1692.85 346.457L1621.07 368.941L1549.29 346.457L1621.07 323.974L1656.96 335.216L1692.85 346.457ZM1545.65 346.457L1473.87 368.941L1402.09 346.457L1473.87 323.974L1545.65 346.457ZM1547.47 347.024L1619.25 369.508L1547.47 391.991L1475.69 369.508L1547.47 347.024ZM1549.31 438.689L1621.09 416.205L1692.87 438.689L1621.09 461.172L1549.31 438.689ZM1696.53 438.689L1768.31 416.205L1840.09 438.689L1768.31 461.172L1696.53 438.689ZM1990.93 438.689L2062.71 416.205L2134.49 438.689L2062.71 461.172L1990.93 438.689ZM2321.23 427.447L2357.12 416.205L2393.01 427.447L2428.9 438.689L2357.12 461.172L2285.34 438.689L2321.23 427.447ZM2504.31 416.205L2576.09 438.689L2504.31 461.172L2432.53 438.689L2504.31 416.205ZM2506.15 461.739L2577.93 439.256L2649.71 461.739L2577.93 484.223L2506.15 461.739ZM2579.75 438.689L2651.53 416.205L2723.31 438.689L2651.53 461.172L2579.75 438.689ZM2945.93 416.205L3017.71 438.689L2945.93 461.172L2874.15 438.689L2945.93 416.205ZM3019.53 438.107L2947.75 415.623L3019.53 393.14L3091.31 415.623L3055.42 426.865L3019.53 438.107ZM3166.72 393.14L3238.5 415.623L3166.72 438.107L3094.94 415.623L3166.72 393.14ZM3240.34 370.09L3312.12 392.573L3240.34 415.057L3168.56 392.573L3240.34 370.09ZM3238.5 369.508L3166.72 391.991L3094.94 369.508L3166.72 347.024L3238.5 369.508ZM3093.12 277.858L3164.9 300.342L3093.12 322.825L3021.34 300.342L3057.23 289.1L3093.12 277.858ZM2945.93 322.825L2874.15 300.342L2945.93 277.858L3017.71 300.342L2945.93 322.825ZM2649.69 277.276L2577.91 299.76L2506.13 277.276L2577.91 254.793L2649.69 277.276ZM2430.72 299.76L2394.83 288.518L2358.94 277.276L2430.72 254.793L2502.5 277.276L2430.72 299.76ZM2392.99 265.468L2357.1 276.71L2285.32 254.226L2357.1 231.743L2428.88 254.226L2392.99 265.468ZM2281.66 254.226L2209.88 276.71L2138.1 254.226L2209.88 231.743L2281.66 254.226ZM2208.06 277.276L2136.28 299.76L2064.5 277.276L2136.28 254.793L2208.06 277.276ZM2060.87 277.276L1989.09 299.76L1917.31 277.276L1989.09 254.793L2060.87 277.276ZM1987.25 300.342L1915.47 322.825L1843.69 300.342L1915.47 277.858L1987.25 300.342ZM1694.69 345.875L1622.91 323.392L1694.69 300.908L1766.47 323.392L1694.69 345.875ZM1619.25 323.392L1547.47 345.875L1475.69 323.392L1547.47 300.908L1619.25 323.392ZM1398.44 346.457L1362.55 357.699L1326.66 368.941L1254.88 346.457L1326.66 323.974L1398.44 346.457ZM1400.28 391.991L1328.5 369.508L1400.28 347.024L1472.06 369.508L1436.17 380.749L1400.28 391.991ZM1545.65 392.573L1473.87 415.057L1402.09 392.573L1473.87 370.09L1545.65 392.573ZM1547.47 439.256L1619.25 461.739L1547.47 484.223L1475.69 461.739L1547.47 439.256ZM1622.91 461.739L1658.8 450.497L1694.69 439.256L1766.47 461.739L1694.69 484.223L1622.91 461.739ZM1770.12 461.739L1841.9 439.256L1913.68 461.739L1841.9 484.223L1770.12 461.739ZM1953.2 450.497L1989.09 439.256L2060.87 461.739L2024.98 472.981L1989.09 484.223L1917.31 461.739L1953.2 450.497ZM2064.53 461.739L2136.31 439.256L2208.09 461.739L2136.31 484.223L2064.53 461.739ZM2283.5 484.223L2211.72 461.739L2283.5 439.256L2319.39 450.497L2355.28 461.739L2319.39 472.981L2283.5 484.223ZM2430.72 439.256L2502.5 461.739L2430.72 484.223L2358.94 461.739L2430.72 439.256ZM2798.72 461.172L2726.94 438.689L2798.72 416.205L2870.5 438.689L2834.61 449.931L2798.72 461.172ZM3021.37 438.689L3093.15 416.205L3164.93 438.689L3093.15 461.172L3021.37 438.689ZM3313.94 393.14L3385.72 415.623L3313.94 438.107L3242.16 415.623L3313.94 393.14ZM3389.37 369.508L3461.15 347.024L3532.93 369.508L3461.15 391.991L3389.37 369.508ZM3387.53 322.825L3315.75 300.342L3387.53 277.858L3459.31 300.342L3387.53 322.825ZM3385.72 323.392L3313.94 345.875L3242.16 323.392L3313.94 300.908L3385.72 323.392ZM3312.1 346.457L3276.21 357.699L3240.32 368.941L3168.54 346.457L3240.32 323.974L3312.1 346.457ZM3166.72 345.875L3094.94 323.392L3166.72 300.908L3238.5 323.392L3166.72 345.875ZM3238.5 277.276L3166.72 299.76L3094.94 277.276L3166.72 254.793L3238.5 277.276ZM3091.28 277.276L3019.5 299.76L2947.72 277.276L3019.5 254.793L3055.39 266.034L3091.28 277.276ZM2725.12 253.644L2653.34 231.161L2725.12 208.677L2796.9 231.161L2725.12 253.644ZM2504.31 231.743L2576.09 254.226L2504.31 276.71L2432.53 254.226L2504.31 231.743ZM2283.5 253.644L2211.72 231.161L2283.5 208.677L2355.28 231.161L2283.5 253.644ZM2134.47 254.226L2062.69 276.71L1990.91 254.226L2062.69 231.743L2134.47 254.226ZM1987.25 254.226L1915.47 276.71L1843.69 254.226L1915.47 231.743L1987.25 254.226ZM1841.88 253.644L1770.1 231.161L1841.88 208.677L1913.66 231.161L1841.88 253.644ZM1913.66 277.276L1877.77 288.518L1841.88 299.76L1770.1 277.276L1841.88 254.793L1913.66 277.276ZM1840.06 300.342L1768.28 322.825L1696.5 300.342L1768.28 277.858L1840.06 300.342ZM1766.47 277.276L1730.58 288.518L1694.69 299.76L1622.91 277.276L1694.69 254.793L1766.47 277.276ZM1692.85 300.342L1621.07 322.825L1549.29 300.342L1621.07 277.858L1692.85 300.342ZM1472.03 323.392L1400.25 345.875L1328.47 323.392L1400.25 300.908L1472.03 323.392ZM1181.31 369.508L1253.09 347.024L1324.87 369.508L1253.09 391.991L1181.31 369.508ZM1326.68 370.09L1398.46 392.573L1326.68 415.057L1254.9 392.573L1326.68 370.09ZM1473.87 416.205L1545.65 438.689L1473.87 461.172L1402.09 438.689L1473.87 416.205ZM1549.31 484.805L1621.09 462.321L1692.87 484.805L1621.09 507.288L1549.31 484.805ZM1768.28 507.288L1732.39 496.046L1696.5 484.805L1768.28 462.321L1840.06 484.805L1768.28 507.288ZM1843.72 484.805L1915.5 462.321L1987.28 484.805L1915.5 507.288L1843.72 484.805ZM1990.93 484.805L2062.71 462.321L2134.49 484.805L2062.71 507.288L2026.82 496.046L1990.93 484.805ZM2138.12 484.805L2209.9 462.321L2281.68 484.805L2209.9 507.288L2138.12 484.805ZM2285.34 484.805L2357.12 462.321L2393.01 473.563L2428.9 484.805L2357.12 507.288L2285.34 484.805ZM2430.72 485.371L2502.5 507.855L2466.61 519.097L2430.72 530.338L2358.94 507.855L2430.72 485.371ZM2504.31 507.288L2432.53 484.805L2504.31 462.321L2576.09 484.805L2504.31 507.288ZM2725.12 439.256L2796.9 461.739L2725.12 484.223L2653.34 461.739L2725.12 439.256ZM2872.31 485.371L2944.09 507.855L2872.31 530.338L2800.53 507.855L2872.31 485.371ZM2800.56 461.739L2836.45 450.497L2872.34 439.256L2944.12 461.739L2872.34 484.223L2800.56 461.739ZM2947.75 461.739L3019.53 439.256L3091.31 461.739L3055.42 472.981L3019.53 484.223L2947.75 461.739ZM3164.9 484.805L3129.01 496.046L3093.12 507.288L3021.34 484.805L3093.12 462.321L3164.9 484.805ZM3387.53 416.205L3459.31 438.689L3387.53 461.172L3315.75 438.689L3387.53 416.205ZM3387.53 415.057L3315.75 392.573L3387.53 370.09L3459.31 392.573L3423.42 403.815L3387.53 415.057ZM3534.75 368.941L3462.97 346.457L3534.75 323.974L3606.53 346.457L3570.64 357.699L3534.75 368.941ZM3534.75 322.825L3462.97 300.342L3534.75 277.858L3606.53 300.342L3534.75 322.825ZM3240.34 322.825L3168.56 300.342L3240.34 277.858L3312.12 300.342L3240.34 322.825ZM3164.9 254.226L3093.12 276.71L3021.34 254.226L3093.12 231.743L3164.9 254.226ZM3091.28 231.161L3019.5 253.644L2947.72 231.161L3019.5 208.677L3091.28 231.161ZM2944.09 231.161L2872.31 253.644L2800.53 231.161L2872.31 208.677L2944.09 231.161ZM2723.28 208.11L2651.5 230.594L2579.72 208.11L2651.5 185.627L2723.28 208.11ZM2577.91 207.528L2506.13 185.045L2577.91 162.561L2649.69 185.045L2577.91 207.528ZM2576.09 208.11L2504.31 230.594L2432.53 208.11L2504.31 185.627L2576.09 208.11ZM2209.9 230.594L2138.12 208.11L2209.9 185.627L2281.68 208.11L2209.9 230.594ZM2060.87 231.161L1989.09 253.644L1917.31 231.161L1989.09 208.677L2060.87 231.161ZM1768.28 231.743L1840.06 254.226L1768.28 276.71L1696.5 254.226L1732.39 242.984L1768.28 231.743ZM1621.09 231.743L1692.87 254.226L1656.98 265.468L1621.09 276.71L1549.31 254.226L1621.09 231.743ZM1545.65 300.342L1473.87 322.825L1402.09 300.342L1473.87 277.858L1545.65 300.342ZM1324.84 323.392L1253.06 345.875L1217.17 334.634L1181.28 323.392L1253.06 300.908L1324.84 323.392ZM1105.87 347.024L1141.76 358.266L1177.65 369.508L1105.87 391.991L1034.09 369.508L1105.87 347.024ZM1107.71 392.573L1179.49 370.09L1251.27 392.573L1215.38 403.815L1179.49 415.057L1107.71 392.573ZM1400.28 393.14L1472.06 415.623L1400.28 438.107L1328.5 415.623L1400.28 393.14ZM1545.65 484.805L1473.87 507.288L1402.09 484.805L1473.87 462.321L1545.65 484.805ZM1398.44 484.805L1326.66 507.288L1254.88 484.805L1326.66 462.321L1398.44 484.805ZM1400.28 485.371L1472.06 507.855L1400.28 530.338L1328.5 507.855L1400.28 485.371ZM1768.28 508.437L1840.06 530.92L1768.28 553.404L1696.5 530.92L1768.28 508.437ZM1989.09 485.371L2060.87 507.855L1989.09 530.338L1917.31 507.855L1989.09 485.371ZM2062.69 508.437L2134.47 530.92L2062.69 553.404L1990.91 530.92L2062.69 508.437ZM2211.75 507.855L2283.53 485.371L2355.31 507.855L2283.53 530.338L2211.75 507.855ZM2357.1 508.437L2428.88 530.92L2357.1 553.404L2285.32 530.92L2357.1 508.437ZM2506.15 507.855L2542.04 496.613L2577.93 485.371L2649.71 507.855L2577.93 530.338L2506.15 507.855ZM2579.75 484.805L2651.53 462.321L2723.31 484.805L2651.53 507.288L2579.75 484.805ZM2725.12 485.371L2796.9 507.855L2725.12 530.338L2653.34 507.855L2725.12 485.371ZM2945.93 508.437L3017.71 530.92L2945.93 553.404L2874.15 530.92L2945.93 508.437ZM2874.15 484.805L2910.04 473.563L2945.93 462.321L3017.71 484.805L2945.93 507.288L2874.15 484.805ZM3094.97 461.739L3166.75 439.256L3238.53 461.739L3166.75 484.223L3094.97 461.739ZM3168.56 438.689L3240.34 416.205L3312.12 438.689L3240.34 461.172L3168.56 438.689ZM3313.94 439.256L3385.72 461.739L3313.94 484.223L3242.16 461.739L3313.94 439.256ZM3461.15 438.107L3389.37 415.623L3461.15 393.14L3532.93 415.623L3497.04 426.865L3461.15 438.107ZM3534.75 415.057L3462.97 392.573L3534.75 370.09L3606.53 392.573L3534.75 415.057ZM3608.34 345.875L3536.56 323.392L3608.34 300.908L3680.12 323.392L3608.34 345.875ZM3313.94 299.76L3278.05 288.518L3242.16 277.276L3313.94 254.793L3385.72 277.276L3313.94 299.76ZM3017.69 208.11L2945.91 230.594L2874.13 208.11L2945.91 185.627L3017.69 208.11ZM2870.5 208.11L2834.61 219.352L2798.72 230.594L2726.94 208.11L2762.83 196.869L2798.72 185.627L2870.5 208.11ZM2725.12 207.528L2653.34 185.045L2725.12 162.561L2796.9 185.045L2725.12 207.528ZM2502.47 231.161L2430.69 253.644L2358.91 231.161L2430.69 208.677L2502.47 231.161ZM2392.99 219.352L2357.1 230.594L2285.32 208.11L2357.1 185.627L2428.88 208.11L2392.99 219.352ZM1987.25 208.11L1915.47 230.594L1843.69 208.11L1915.47 185.627L1987.25 208.11ZM1840.06 208.11L1768.28 230.594L1696.5 208.11L1768.28 185.627L1840.06 208.11ZM1694.69 208.677L1766.47 231.161L1694.69 253.644L1622.91 231.161L1658.8 219.919L1694.69 208.677ZM1619.25 231.161L1547.47 253.644L1475.69 231.161L1547.47 208.677L1619.25 231.161ZM1473.87 230.594L1402.09 208.11L1473.87 185.627L1545.65 208.11L1473.87 230.594ZM1619.25 277.276L1547.47 299.76L1475.69 277.276L1547.47 254.793L1619.25 277.276ZM1472.03 277.276L1400.25 299.76L1364.36 288.518L1328.47 277.276L1400.25 254.793L1472.03 277.276ZM1253.06 299.76L1217.17 288.518L1181.28 277.276L1253.06 254.793L1324.84 277.276L1253.06 299.76ZM1251.25 300.342L1215.36 311.583L1179.47 322.825L1143.58 311.583L1107.69 300.342L1179.47 277.858L1251.25 300.342ZM1177.63 323.392L1105.85 345.875L1034.07 323.392L1105.85 300.908L1177.63 323.392ZM1068.14 335.216L1104.03 346.457L1068.14 357.699L1032.25 368.941L960.472 346.457L1032.25 323.974L1068.14 335.216ZM958.657 347.024L994.547 358.266L1030.44 369.508L958.657 391.991L886.877 369.508L958.657 347.024ZM1032.28 370.09L1104.06 392.573L1032.28 415.057L960.498 392.573L1032.28 370.09ZM1105.87 393.14L1177.65 415.623L1105.87 438.107L1034.09 415.623L1105.87 393.14ZM1181.31 415.623L1253.09 393.14L1324.87 415.623L1288.98 426.865L1253.09 438.107L1181.31 415.623ZM1400.28 439.256L1472.06 461.739L1436.17 472.981L1400.28 484.223L1328.5 461.739L1364.39 450.497L1400.28 439.256ZM1398.44 530.92L1362.55 542.162L1326.66 553.404L1254.88 530.92L1326.66 508.437L1398.44 530.92ZM1328.5 553.971L1400.28 531.487L1472.06 553.971L1436.17 565.212L1400.28 576.454L1328.5 553.971ZM1437.98 565.794L1473.87 554.552L1509.76 565.794L1545.65 577.036L1473.87 599.52L1402.09 577.036L1437.98 565.794ZM1475.72 553.971L1547.5 531.487L1619.28 553.971L1547.5 576.454L1475.72 553.971ZM1549.31 530.92L1621.09 508.437L1656.98 519.679L1692.87 530.92L1621.09 553.404L1549.31 530.92ZM1843.72 530.92L1915.5 508.437L1987.28 530.92L1915.5 553.404L1879.61 542.162L1843.72 530.92ZM2209.9 508.437L2281.68 530.92L2209.9 553.404L2138.12 530.92L2209.9 508.437ZM2211.75 553.971L2247.64 542.729L2283.53 531.487L2355.31 553.971L2319.42 565.212L2283.53 576.454L2211.75 553.971ZM2430.72 531.487L2502.5 553.971L2430.72 576.454L2358.94 553.971L2430.72 531.487ZM2506.15 553.971L2542.04 542.729L2577.93 531.487L2649.71 553.971L2577.93 576.454L2506.15 553.971ZM2651.53 553.404L2579.75 530.92L2651.53 508.437L2723.31 530.92L2687.42 542.162L2651.53 553.404ZM2726.94 530.92L2798.72 508.437L2870.5 530.92L2798.72 553.404L2726.94 530.92ZM2947.75 507.855L3019.53 485.371L3091.31 507.855L3019.53 530.338L2947.75 507.855ZM3389.37 461.739L3461.15 439.256L3532.93 461.739L3461.15 484.223L3389.37 461.739ZM3534.75 461.172L3462.97 438.689L3498.86 427.447L3534.75 416.205L3606.53 438.689L3534.75 461.172ZM3608.34 438.107L3536.56 415.623L3608.34 393.14L3680.12 415.623L3608.34 438.107ZM3610.18 346.457L3681.96 323.974L3753.74 346.457L3681.96 368.941L3610.18 346.457ZM3681.94 322.825L3610.16 300.342L3681.94 277.858L3753.72 300.342L3717.83 311.583L3681.94 322.825ZM3680.12 277.276L3644.23 288.518L3608.34 299.76L3536.56 277.276L3608.34 254.793L3680.12 277.276ZM3532.91 277.276L3461.13 299.76L3389.35 277.276L3461.13 254.793L3532.91 277.276ZM3387.53 276.71L3315.75 254.226L3387.53 231.743L3459.31 254.226L3387.53 276.71ZM3387.53 230.594L3315.75 208.11L3351.64 196.869L3387.53 185.627L3459.31 208.11L3387.53 230.594ZM3240.34 230.594L3168.56 208.11L3240.34 185.627L3312.12 208.11L3240.34 230.594ZM3164.9 208.11L3129.01 219.352L3093.12 230.594L3021.34 208.11L3057.23 196.869L3093.12 185.627L3164.9 208.11ZM2944.09 185.045L2872.31 207.528L2800.53 185.045L2872.31 162.561L2944.09 185.045ZM2687.39 173.236L2651.5 184.478L2579.72 161.995L2651.5 139.511L2723.28 161.995L2687.39 173.236ZM2576.09 161.995L2504.31 184.478L2432.53 161.995L2504.31 139.511L2576.09 161.995ZM2283.5 207.528L2211.72 185.045L2283.5 162.561L2355.28 185.045L2283.5 207.528ZM2208.06 185.045L2136.28 207.528L2064.5 185.045L2136.28 162.561L2208.06 185.045ZM1841.9 207.528L1770.12 185.045L1841.9 162.561L1913.68 185.045L1841.9 207.528ZM1692.85 208.11L1656.96 219.352L1621.07 230.594L1549.29 208.11L1621.07 185.627L1656.96 196.869L1692.85 208.11ZM1545.65 254.226L1473.87 276.71L1402.09 254.226L1473.87 231.743L1545.65 254.226ZM1398.44 254.226L1362.55 265.468L1326.66 276.71L1290.77 265.468L1254.88 254.226L1326.66 231.743L1398.44 254.226ZM1104.03 300.342L1032.25 322.825L960.472 300.342L1032.25 277.858L1104.03 300.342ZM1030.44 323.392L958.657 345.875L886.877 323.392L958.657 300.908L1030.44 323.392ZM920.951 335.216L956.841 346.457L885.061 368.941L813.281 346.457L885.061 323.974L920.951 335.216ZM885.061 370.09L920.951 381.331L956.841 392.573L885.061 415.057L813.281 392.573L849.171 381.331L885.061 370.09ZM1254.9 438.689L1326.68 416.205L1398.46 438.689L1326.68 461.172L1254.9 438.689ZM1253.06 531.487L1324.84 553.971L1253.06 576.454L1181.28 553.971L1253.06 531.487ZM1290.79 565.794L1326.68 554.552L1398.46 577.036L1326.68 599.52L1254.9 577.036L1290.79 565.794ZM1621.09 554.552L1692.87 577.036L1621.09 599.52L1549.31 577.036L1621.09 554.552ZM1770.12 553.971L1841.9 531.487L1913.68 553.971L1841.9 576.454L1770.12 553.971ZM1989.09 576.454L1953.2 565.212L1917.31 553.971L1989.09 531.487L2060.87 553.971L2024.98 565.212L1989.09 576.454ZM2209.9 554.552L2281.68 577.036L2209.9 599.52L2138.12 577.036L2209.9 554.552ZM2357.1 554.552L2392.99 565.794L2428.88 577.036L2357.1 599.52L2285.32 577.036L2357.1 554.552ZM2430.72 577.603L2502.5 600.086L2430.72 622.57L2358.94 600.086L2430.72 577.603ZM2432.53 577.036L2504.31 554.552L2576.09 577.036L2504.31 599.52L2432.53 577.036ZM2725.12 576.454L2653.34 553.971L2725.12 531.487L2796.9 553.971L2761.01 565.212L2725.12 576.454ZM2800.56 553.971L2872.34 531.487L2944.12 553.971L2872.34 576.454L2800.56 553.971ZM2947.75 553.971L3019.53 531.487L3091.31 553.971L3019.53 576.454L2947.75 553.971ZM3021.37 530.92L3057.26 519.679L3093.15 508.437L3164.93 530.92L3093.15 553.404L3021.37 530.92ZM3168.56 530.92L3240.34 508.437L3312.12 530.92L3240.34 553.404L3168.56 530.92ZM3240.34 507.288L3204.45 496.046L3168.56 484.805L3240.34 462.321L3312.12 484.805L3276.23 496.046L3240.34 507.288ZM3315.78 484.805L3387.56 462.321L3459.34 484.805L3387.56 507.288L3315.78 484.805ZM3462.97 484.805L3534.75 462.321L3606.53 484.805L3534.75 507.288L3462.97 484.805ZM3536.59 461.739L3572.48 450.497L3608.37 439.256L3680.15 461.739L3608.37 484.223L3536.59 461.739ZM3610.18 438.689L3681.96 416.205L3753.74 438.689L3681.96 461.172L3610.18 438.689ZM3755.56 347.024L3827.34 369.508L3755.56 391.991L3683.78 369.508L3755.56 347.024ZM3610.18 254.226L3681.96 231.743L3753.74 254.226L3681.96 276.71L3610.18 254.226ZM3534.75 276.71L3462.97 254.226L3534.75 231.743L3606.53 254.226L3534.75 276.71ZM3461.15 253.644L3389.37 231.161L3461.15 208.677L3532.93 231.161L3461.15 253.644ZM3313.94 207.528L3278.05 196.287L3242.16 185.045L3313.94 162.561L3385.72 185.045L3313.94 207.528ZM3166.72 207.528L3094.94 185.045L3166.72 162.561L3238.5 185.045L3166.72 207.528ZM3019.53 161.413L2947.75 138.929L3019.53 116.446L3091.31 138.929L3019.53 161.413ZM2945.93 139.511L3017.71 161.995L2981.82 173.236L2945.93 184.478L2874.15 161.995L2910.04 150.753L2945.93 139.511ZM2798.72 184.478L2726.94 161.995L2798.72 139.511L2870.5 161.995L2798.72 184.478ZM2796.88 138.929L2725.1 161.413L2653.32 138.929L2725.1 116.446L2796.88 138.929ZM2577.91 116.446L2649.69 138.929L2613.8 150.171L2577.91 161.413L2506.13 138.929L2577.91 116.446ZM2430.72 162.561L2502.5 185.045L2430.72 207.528L2358.94 185.045L2430.72 162.561ZM2209.9 184.478L2138.12 161.995L2209.9 139.511L2281.68 161.995L2209.9 184.478ZM2062.69 184.478L1990.91 161.995L2062.69 139.511L2134.47 161.995L2062.69 184.478ZM1987.25 161.995L1951.36 173.236L1915.47 184.478L1843.69 161.995L1915.47 139.511L1987.25 161.995ZM1768.28 184.478L1696.5 161.995L1768.28 139.511L1840.06 161.995L1768.28 184.478ZM1766.47 185.045L1694.69 207.528L1622.91 185.045L1694.69 162.561L1766.47 185.045ZM1692.85 161.995L1621.07 184.478L1549.29 161.995L1621.07 139.511L1656.96 150.753L1692.85 161.995ZM1547.47 161.413L1475.69 138.929L1547.47 116.446L1583.36 127.687L1619.25 138.929L1547.47 161.413ZM1547.47 162.561L1583.36 173.803L1619.25 185.045L1547.47 207.528L1475.69 185.045L1511.58 173.803L1547.47 162.561ZM1472.03 185.045L1400.25 207.528L1328.47 185.045L1400.25 162.561L1472.03 185.045ZM1472.03 231.161L1400.25 253.644L1328.47 231.161L1400.25 208.677L1472.03 231.161ZM1251.25 254.226L1179.47 276.71L1143.58 265.468L1107.69 254.226L1179.47 231.743L1251.25 254.226ZM883.22 369.508L847.33 380.749L811.44 391.991L739.66 369.508L811.44 347.024L883.22 369.508ZM736.03 369.508L664.25 391.991L592.47 369.508L628.36 358.266L664.25 347.024L736.03 369.508ZM813.281 438.689L885.061 416.205L920.951 427.447L956.841 438.689L885.061 461.172L813.281 438.689ZM958.657 439.256L1030.44 461.739L994.547 472.981L958.657 484.223L886.877 461.739L958.657 439.256ZM1032.28 461.172L960.498 438.689L996.388 427.447L1032.28 416.205L1104.06 438.689L1032.28 461.172ZM1179.47 416.205L1251.25 438.689L1179.47 461.172L1107.69 438.689L1179.47 416.205ZM1253.06 439.256L1324.84 461.739L1253.06 484.223L1181.28 461.739L1253.06 439.256ZM1324.84 507.855L1253.06 530.338L1181.28 507.855L1253.06 485.371L1324.84 507.855ZM1217.2 588.844L1253.09 577.603L1324.87 600.086L1253.09 622.57L1181.31 600.086L1217.2 588.844ZM1400.28 577.603L1472.06 600.086L1400.28 622.57L1328.5 600.086L1400.28 577.603ZM1473.87 600.668L1545.65 623.152L1473.87 645.635L1402.09 623.152L1473.87 600.668ZM1475.72 600.086L1547.5 577.603L1619.28 600.086L1547.5 622.57L1475.72 600.086ZM1696.53 577.036L1768.31 554.552L1804.2 565.794L1840.09 577.036L1768.31 599.52L1696.53 577.036ZM1843.72 577.036L1915.5 554.552L1987.28 577.036L1915.5 599.52L1843.72 577.036ZM2504.31 600.668L2576.09 623.152L2504.31 645.635L2432.53 623.152L2504.31 600.668ZM2615.64 565.794L2651.53 554.552L2723.31 577.036L2651.53 599.52L2579.75 577.036L2615.64 565.794ZM2725.12 577.603L2796.9 600.086L2725.12 622.57L2653.34 600.086L2725.12 577.603ZM2874.15 577.036L2945.93 554.552L2981.82 565.794L3017.71 577.036L2945.93 599.52L2874.15 577.036ZM3093.12 554.552L3164.9 577.036L3093.12 599.52L3021.34 577.036L3093.12 554.552ZM3240.34 599.52L3168.56 577.036L3240.34 554.552L3312.12 577.036L3276.23 588.278L3240.34 599.52ZM3278.05 519.097L3242.16 507.855L3278.05 496.613L3313.94 485.371L3385.72 507.855L3313.94 530.338L3278.05 519.097ZM3610.18 392.573L3681.96 370.09L3717.85 381.331L3753.74 392.573L3681.96 415.057L3610.18 392.573ZM3757.38 392.573L3829.15 370.09L3900.93 392.573L3829.15 415.057L3757.38 392.573ZM3900.93 346.457L3829.15 368.941L3757.38 346.457L3829.15 323.974L3865.04 335.216L3900.93 346.457ZM3827.31 323.392L3755.53 345.875L3683.75 323.392L3755.53 300.908L3791.42 312.15L3827.31 323.392ZM3683.78 277.276L3755.56 254.793L3827.34 277.276L3755.56 299.76L3683.78 277.276ZM3389.37 185.045L3461.15 162.561L3532.93 185.045L3461.15 207.528L3389.37 185.045ZM3240.34 139.511L3312.12 161.995L3240.34 184.478L3204.45 173.236L3168.56 161.995L3204.45 150.753L3240.34 139.511ZM3093.12 184.478L3021.34 161.995L3093.12 139.511L3164.9 161.995L3093.12 184.478ZM2576.09 115.879L2540.2 127.121L2504.31 138.362L2432.53 115.879L2504.31 93.3954L2576.09 115.879ZM2502.47 138.929L2430.69 161.413L2358.91 138.929L2430.69 116.446L2502.47 138.929ZM2392.99 173.236L2357.1 184.478L2285.32 161.995L2321.21 150.753L2357.1 139.511L2428.88 161.995L2392.99 173.236ZM2209.9 138.362L2138.12 115.879L2209.9 93.3954L2281.68 115.879L2209.9 138.362ZM2136.31 116.446L2208.09 138.929L2136.31 161.413L2064.53 138.929L2100.42 127.687L2136.31 116.446ZM1989.09 116.446L2060.87 138.929L1989.09 161.413L1917.31 138.929L1953.2 127.687L1989.09 116.446ZM1841.9 161.413L1770.12 138.929L1841.9 116.446L1913.68 138.929L1841.9 161.413ZM1545.65 115.879L1473.87 138.362L1402.09 115.879L1473.87 93.3954L1545.65 115.879ZM1545.65 161.995L1509.76 173.236L1473.87 184.478L1402.09 161.995L1473.87 139.511L1545.65 161.995ZM1326.68 139.511L1398.46 161.995L1326.68 184.478L1254.9 161.995L1290.79 150.753L1326.68 139.511ZM1398.44 208.11L1326.66 230.594L1254.88 208.11L1326.66 185.627L1398.44 208.11ZM1105.87 253.644L1034.09 231.161L1105.87 208.677L1177.65 231.161L1105.87 253.644ZM1030.44 277.276L958.657 299.76L886.877 277.276L958.657 254.793L1030.44 277.276ZM883.22 323.392L811.44 345.875L739.66 323.392L811.44 300.908L883.22 323.392ZM809.625 346.457L773.735 357.699L737.845 368.941L666.065 346.457L737.845 323.974L809.625 346.457ZM590.655 370.09L662.435 392.573L590.655 415.057L518.875 392.573L554.765 381.331L590.655 370.09ZM664.25 393.14L736.03 415.623L664.25 438.107L592.47 415.623L664.25 393.14ZM885.061 462.321L956.841 484.805L920.951 496.046L885.061 507.288L813.281 484.805L885.061 462.321ZM1032.28 507.288L960.498 484.805L1032.28 462.321L1104.06 484.805L1068.17 496.046L1032.28 507.288ZM1034.09 461.739L1069.98 450.497L1105.87 439.256L1177.65 461.739L1105.87 484.223L1034.09 461.739ZM1179.47 462.321L1251.25 484.805L1215.36 496.046L1179.47 507.288L1107.69 484.805L1179.47 462.321ZM1105.87 531.487L1177.65 553.971L1105.87 576.454L1034.09 553.971L1069.98 542.729L1105.87 531.487ZM1177.63 600.086L1141.74 611.328L1105.85 622.57L1034.07 600.086L1105.85 577.603L1177.63 600.086ZM1694.69 577.603L1766.47 600.086L1694.69 622.57L1622.91 600.086L1694.69 577.603ZM1917.31 600.086L1989.09 577.603L2060.87 600.086L1989.09 622.57L1917.31 600.086ZM2064.53 600.086L2100.42 588.844L2136.31 577.603L2208.09 600.086L2172.2 611.328L2136.31 622.57L2064.53 600.086ZM2209.9 600.668L2281.68 623.152L2209.9 645.635L2138.12 623.152L2209.9 600.668ZM2211.75 600.086L2283.53 577.603L2355.31 600.086L2283.53 622.57L2211.75 600.086ZM2357.1 600.668L2428.88 623.152L2357.1 645.635L2285.32 623.152L2357.1 600.668ZM2506.15 600.086L2577.93 577.603L2649.71 600.086L2577.93 622.57L2506.15 600.086ZM2947.75 600.086L3019.53 577.603L3055.42 588.844L3091.31 600.086L3019.53 622.57L2947.75 600.086ZM3094.97 600.086L3166.75 577.603L3238.53 600.086L3166.75 622.57L3094.97 600.086ZM3313.94 576.454L3242.16 553.971L3278.05 542.729L3313.94 531.487L3385.72 553.971L3313.94 576.454ZM3389.37 507.855L3461.15 485.371L3532.93 507.855L3497.04 519.097L3461.15 530.338L3389.37 507.855ZM3536.59 507.855L3608.37 485.371L3680.15 507.855L3608.37 530.338L3536.59 507.855ZM3610.18 484.805L3681.96 462.321L3717.85 473.563L3753.74 484.805L3681.96 507.288L3610.18 484.805ZM3683.78 461.739L3755.56 439.256L3827.34 461.739L3755.56 484.223L3683.78 461.739ZM3755.56 438.107L3683.78 415.623L3719.67 404.382L3755.56 393.14L3827.34 415.623L3791.45 426.865L3755.56 438.107ZM3831 415.623L3902.78 393.14L3974.56 415.623L3902.78 438.107L3831 415.623ZM3940.48 403.815L3904.59 392.573L3976.37 370.09L4048.15 392.573L3976.37 415.057L3940.48 403.815ZM3902.75 391.991L3830.97 369.508L3866.86 358.266L3902.75 347.024L3974.53 369.508L3902.75 391.991ZM3831 323.392L3902.78 300.908L3974.56 323.392L3902.78 345.875L3831 323.392ZM3829.15 322.825L3757.38 300.342L3829.15 277.858L3900.93 300.342L3829.15 322.825ZM3681.94 230.594L3610.16 208.11L3681.94 185.627L3753.72 208.11L3681.94 230.594ZM3680.12 231.161L3608.34 253.644L3536.56 231.161L3608.34 208.677L3680.12 231.161ZM3534.75 230.594L3462.97 208.11L3534.75 185.627L3606.53 208.11L3534.75 230.594ZM3459.31 161.995L3387.53 184.478L3315.75 161.995L3387.53 139.511L3459.31 161.995ZM3385.72 138.929L3313.94 161.413L3242.16 138.929L3313.94 116.446L3385.72 138.929ZM3238.5 138.929L3166.72 161.413L3094.94 138.929L3166.72 116.446L3238.5 138.929ZM3129.01 127.121L3093.12 138.362L3021.34 115.879L3057.23 104.637L3093.12 93.3954L3164.9 115.879L3129.01 127.121ZM2945.93 138.362L2874.15 115.879L2945.93 93.3954L3017.71 115.879L2945.93 138.362ZM2944.09 92.8134L2872.31 115.297L2800.53 92.8134L2872.31 70.3299L2944.09 92.8134ZM2870.5 115.879L2834.61 127.121L2798.72 138.362L2726.94 115.879L2798.72 93.3954L2870.5 115.879ZM2723.28 115.879L2651.5 138.362L2579.72 115.879L2651.5 93.3954L2723.28 115.879ZM2577.91 115.297L2506.13 92.8134L2577.91 70.3299L2649.69 92.8134L2577.91 115.297ZM2355.28 138.929L2283.5 161.413L2211.72 138.929L2283.5 116.446L2319.39 127.687L2355.28 138.929ZM2134.47 115.879L2062.69 138.362L1990.91 115.879L2062.69 93.3954L2134.47 115.879ZM1987.25 115.879L1915.47 138.362L1879.58 127.121L1843.69 115.879L1915.47 93.3954L1987.25 115.879ZM1768.28 138.362L1696.5 115.879L1768.28 93.3954L1840.06 115.879L1768.28 138.362ZM1766.47 138.929L1694.69 161.413L1622.91 138.929L1694.69 116.446L1766.47 138.929ZM1547.47 115.297L1475.69 92.8134L1547.47 70.3299L1619.25 92.8134L1547.47 115.297ZM1472.03 138.929L1436.14 150.171L1400.25 161.413L1328.47 138.929L1400.25 116.446L1472.03 138.929ZM1253.06 116.446L1288.95 127.687L1324.84 138.929L1253.06 161.413L1181.28 138.929L1253.06 116.446ZM1324.84 185.045L1253.06 207.528L1181.28 185.045L1253.06 162.561L1324.84 185.045ZM1179.47 185.627L1251.25 208.11L1179.47 230.594L1107.69 208.11L1143.58 196.869L1179.47 185.627ZM1032.25 230.594L960.472 208.11L1032.25 185.627L1104.03 208.11L1032.25 230.594ZM958.657 162.561L1030.44 185.045L958.657 207.528L886.877 185.045L958.657 162.561ZM1032.25 231.743L1104.03 254.226L1032.25 276.71L960.472 254.226L996.362 242.984L1032.25 231.743ZM885.061 277.858L956.841 300.342L885.061 322.825L813.281 300.342L849.171 289.1L885.061 277.858ZM736.03 323.392L664.25 345.875L592.47 323.392L664.25 300.908L736.03 323.392ZM517.059 345.875L445.28 323.392L481.169 312.15L517.059 300.908L588.839 323.392L517.059 345.875ZM443.438 323.974L515.218 346.457L443.438 368.941L371.658 346.457L407.548 335.216L443.438 323.974ZM445.28 369.508L517.059 347.024L588.839 369.508L517.059 391.991L481.169 380.749L445.28 369.508ZM666.091 438.689L737.871 416.205L809.651 438.689L737.871 461.172L666.091 438.689ZM811.466 439.256L883.246 461.739L811.466 484.223L739.686 461.739L811.466 439.256ZM958.657 485.371L1030.44 507.855L994.547 519.097L958.657 530.338L886.877 507.855L958.657 485.371ZM1034.09 507.855L1105.87 485.371L1177.65 507.855L1105.87 530.338L1034.09 507.855ZM1179.47 600.668L1251.25 623.152L1215.36 634.393L1179.47 645.635L1107.69 623.152L1179.47 600.668ZM1254.9 623.152L1326.68 600.668L1398.46 623.152L1326.68 645.635L1254.9 623.152ZM1475.72 646.202L1547.5 623.718L1619.28 646.202L1547.5 668.685L1475.72 646.202ZM1621.09 645.635L1549.31 623.152L1621.09 600.668L1656.98 611.91L1692.87 623.152L1656.98 634.393L1621.09 645.635ZM1768.28 600.668L1840.06 623.152L1768.28 645.635L1696.5 623.152L1768.28 600.668ZM1915.5 645.635L1843.72 623.152L1915.5 600.668L1987.28 623.152L1915.5 645.635ZM1990.93 623.152L2062.71 600.668L2134.49 623.152L2062.71 645.635L1990.93 623.152ZM2430.72 623.718L2502.5 646.202L2430.72 668.685L2358.94 646.202L2430.72 623.718ZM2651.53 645.635L2579.75 623.152L2651.53 600.668L2723.31 623.152L2651.53 645.635ZM2726.96 623.152L2798.74 600.668L2870.52 623.152L2798.74 645.635L2726.96 623.152ZM2872.31 623.718L2944.09 646.202L2872.31 668.685L2800.53 646.202L2872.31 623.718ZM3093.12 600.668L3164.9 623.152L3093.12 645.635L3021.34 623.152L3093.12 600.668ZM3168.56 623.152L3240.34 600.668L3312.12 623.152L3240.34 645.635L3168.56 623.152ZM3278.05 611.328L3242.16 600.086L3313.94 577.603L3385.72 600.086L3313.94 622.57L3278.05 611.328ZM3315.78 530.92L3387.56 508.437L3459.34 530.92L3387.56 553.404L3315.78 530.92ZM3681.94 508.437L3717.83 519.679L3753.72 530.92L3681.94 553.404L3610.16 530.92L3681.94 508.437ZM3683.78 507.855L3719.67 496.613L3755.56 485.371L3791.45 496.613L3827.34 507.855L3755.56 530.338L3683.78 507.855ZM3829.15 461.172L3757.38 438.689L3829.15 416.205L3900.93 438.689L3829.15 461.172ZM3904.59 346.457L3976.37 323.974L4048.15 346.457L3976.37 368.941L3904.59 346.457ZM3976.35 322.825L3940.46 311.583L3904.57 300.342L3976.35 277.858L4048.13 300.342L3976.35 322.825ZM3902.75 299.76L3866.86 288.518L3830.97 277.276L3902.75 254.793L3974.53 277.276L3902.75 299.76ZM3865.04 265.468L3829.15 276.71L3757.38 254.226L3829.15 231.743L3900.93 254.226L3865.04 265.468ZM3755.56 253.644L3683.78 231.161L3755.56 208.677L3827.34 231.161L3791.45 242.402L3755.56 253.644ZM3608.34 207.528L3536.56 185.045L3608.34 162.561L3680.12 185.045L3608.34 207.528ZM3534.75 184.478L3462.97 161.995L3498.86 150.753L3534.75 139.511L3606.53 161.995L3534.75 184.478ZM3312.1 115.879L3240.32 138.362L3168.54 115.879L3240.32 93.3954L3312.1 115.879ZM3276.23 81.005L3240.34 92.2467L3168.56 69.7632L3204.45 58.5215L3240.34 47.2797L3312.12 69.7632L3276.23 81.005ZM3238.5 92.8134L3166.72 115.297L3094.94 92.8134L3166.72 70.3299L3238.5 92.8134ZM3019.53 115.297L2947.75 92.8134L3019.53 70.3299L3091.31 92.8134L3019.53 115.297ZM3017.69 69.7632L2981.8 81.005L2945.91 92.2467L2874.13 69.7632L2945.91 47.2797L3017.69 69.7632ZM2796.88 92.8134L2725.1 115.297L2653.32 92.8134L2725.1 70.3299L2796.88 92.8134ZM2428.88 115.879L2357.1 138.362L2285.32 115.879L2357.1 93.3954L2392.99 104.637L2428.88 115.879ZM2283.5 115.297L2211.72 92.8134L2283.5 70.3299L2355.28 92.8134L2283.5 115.297ZM2281.66 69.7632L2209.88 92.2467L2138.1 69.7632L2209.88 47.2797L2281.66 69.7632ZM2208.06 92.8134L2136.28 115.297L2064.5 92.8134L2136.28 70.3299L2208.06 92.8134ZM2062.69 92.2467L2026.8 81.005L1990.91 69.7632L2062.69 47.2797L2134.47 69.7632L2062.69 92.2467ZM2060.87 92.8134L1989.09 115.297L1917.31 92.8134L1989.09 70.3299L2060.87 92.8134ZM1841.9 115.297L1806.01 104.055L1770.12 92.8134L1841.9 70.3299L1913.68 92.8134L1841.9 115.297ZM1143.58 104.637L1179.47 93.3954L1251.25 115.879L1179.47 138.362L1107.69 115.879L1143.58 104.637ZM1251.25 161.995L1179.47 184.478L1107.69 161.995L1179.47 139.511L1251.25 161.995ZM1177.63 185.045L1105.85 207.528L1034.07 185.045L1105.85 162.561L1177.63 185.045ZM1068.14 173.236L1032.25 184.478L960.472 161.995L996.362 150.753L1032.25 139.511L1104.03 161.995L1068.14 173.236ZM885.061 184.478L813.281 161.995L885.061 139.511L956.841 161.995L885.061 184.478ZM958.657 208.677L1030.44 231.161L958.657 253.644L886.877 231.161L958.657 208.677ZM883.22 231.161L811.44 253.644L739.66 231.161L811.44 208.677L883.22 231.161ZM883.22 277.276L811.44 299.76L739.66 277.276L811.44 254.793L883.22 277.276ZM736.03 277.276L664.25 299.76L592.47 277.276L664.25 254.793L736.03 277.276ZM590.655 276.71L518.875 254.226L590.655 231.743L662.435 254.226L590.655 276.71ZM371.684 392.573L443.464 370.09L515.244 392.573L443.464 415.057L407.574 403.815L371.684 392.573ZM590.655 416.205L662.435 438.689L626.545 449.931L590.655 461.172L518.875 438.689L590.655 416.205ZM1032.28 508.437L1104.06 530.92L1032.28 553.404L960.498 530.92L1032.28 508.437ZM1032.25 554.552L1104.03 577.036L1032.25 599.52L960.472 577.036L1032.25 554.552ZM1181.31 646.202L1217.2 634.96L1253.09 623.718L1324.87 646.202L1253.09 668.685L1217.2 657.444L1181.31 646.202ZM1328.5 646.202L1400.28 623.718L1472.06 646.202L1400.28 668.685L1328.5 646.202ZM1473.87 646.784L1545.65 669.267L1473.87 691.751L1402.09 669.267L1473.87 646.784ZM1658.8 634.96L1694.69 623.718L1730.58 634.96L1766.47 646.202L1694.69 668.685L1622.91 646.202L1658.8 634.96ZM1841.9 623.718L1913.68 646.202L1841.9 668.685L1770.12 646.202L1841.9 623.718ZM1843.72 669.267L1915.5 646.784L1987.28 669.267L1915.5 691.751L1843.72 669.267ZM1989.09 668.685L1917.31 646.202L1953.2 634.96L1989.09 623.718L2060.87 646.202L2024.98 657.444L1989.09 668.685ZM2064.53 646.202L2136.31 623.718L2208.09 646.202L2136.31 668.685L2064.53 646.202ZM2211.75 646.202L2247.64 634.96L2283.53 623.718L2355.31 646.202L2283.53 668.685L2211.75 646.202ZM2432.53 669.267L2504.31 646.784L2576.09 669.267L2504.31 691.751L2432.53 669.267ZM2506.15 646.202L2577.93 623.718L2649.71 646.202L2577.93 668.685L2506.15 646.202ZM2651.53 646.784L2723.31 669.267L2651.53 691.751L2579.75 669.267L2651.53 646.784ZM2653.34 646.202L2725.12 623.718L2796.9 646.202L2725.12 668.685L2653.34 646.202ZM2947.75 646.202L2983.64 634.96L3019.53 623.718L3091.31 646.202L3019.53 668.685L2947.75 646.202ZM3166.72 623.718L3238.5 646.202L3166.72 668.685L3094.94 646.202L3166.72 623.718ZM3389.37 553.971L3461.15 531.487L3532.93 553.971L3461.15 576.454L3389.37 553.971ZM3536.56 553.971L3572.45 542.729L3608.34 531.487L3644.23 542.729L3680.12 553.971L3608.34 576.454L3536.56 553.971ZM3757.38 484.805L3829.15 462.321L3900.93 484.805L3829.15 507.288L3757.38 484.805ZM3866.86 472.981L3830.97 461.739L3866.86 450.497L3902.75 439.256L3974.53 461.739L3902.75 484.223L3866.86 472.981ZM3904.59 438.689L3976.37 416.205L4048.15 438.689L3976.37 461.172L3904.59 438.689ZM3978.19 369.508L4049.97 347.024L4121.75 369.508L4049.97 391.991L3978.19 369.508ZM4195.34 346.457L4123.56 368.941L4051.78 346.457L4123.56 323.974L4159.45 335.216L4195.34 346.457ZM4195.34 300.342L4123.56 322.825L4051.78 300.342L4123.56 277.858L4195.34 300.342ZM3902.75 253.644L3830.97 231.161L3902.75 208.677L3974.53 231.161L3902.75 253.644ZM3755.56 207.528L3683.78 185.045L3719.67 173.803L3755.56 162.561L3827.34 185.045L3755.56 207.528ZM3532.91 138.929L3461.13 161.413L3389.35 138.929L3461.13 116.446L3497.02 127.687L3532.91 138.929ZM3461.15 115.297L3389.37 92.8134L3461.15 70.3299L3532.93 92.8134L3461.15 115.297ZM3313.94 115.297L3242.16 92.8134L3313.94 70.3299L3385.72 92.8134L3313.94 115.297ZM2870.5 69.7632L2798.72 92.2467L2726.94 69.7632L2798.72 47.2797L2870.5 69.7632ZM2576.09 69.7632L2504.31 92.2467L2432.53 69.7632L2504.31 47.2797L2576.09 69.7632ZM2502.47 92.8134L2430.69 115.297L2358.91 92.8134L2430.69 70.3299L2502.47 92.8134ZM2024.98 57.9548L1989.09 69.1965L1953.2 57.9548L1917.31 46.713L1989.09 24.2295L2060.87 46.713L2024.98 57.9548ZM1915.5 47.2797L1987.28 69.7632L1915.5 92.2467L1879.61 81.005L1843.72 69.7632L1879.61 58.5215L1915.5 47.2797ZM1768.28 92.2467L1696.5 69.7632L1768.28 47.2797L1840.06 69.7632L1768.28 92.2467ZM1692.85 69.7632L1621.07 92.2467L1549.29 69.7632L1585.18 58.5215L1621.07 47.2797L1692.85 69.7632ZM1398.44 69.7632L1326.66 92.2467L1254.88 69.7632L1326.66 47.2797L1398.44 69.7632ZM1253.06 69.1965L1181.28 46.713L1253.06 24.2295L1324.84 46.713L1253.06 69.1965ZM1324.84 92.8134L1253.06 115.297L1181.28 92.8134L1253.06 70.3299L1324.84 92.8134ZM1177.63 92.8134L1105.85 115.297L1034.07 92.8134L1105.85 70.3299L1177.63 92.8134ZM1177.63 138.929L1105.85 161.413L1034.07 138.929L1105.85 116.446L1177.63 138.929ZM958.657 161.413L886.877 138.929L958.657 116.446L1030.44 138.929L958.657 161.413ZM885.061 185.627L956.841 208.11L920.951 219.352L885.061 230.594L813.281 208.11L849.171 196.869L885.061 185.627ZM809.625 208.11L737.845 230.594L666.065 208.11L737.845 185.627L809.625 208.11ZM737.845 231.743L809.625 254.226L773.735 265.468L737.845 276.71L666.065 254.226L701.955 242.984L737.845 231.743ZM662.409 300.342L590.629 322.825L518.849 300.342L590.629 277.858L662.409 300.342ZM515.218 300.342L443.438 322.825L371.658 300.342L443.438 277.858L515.218 300.342ZM441.623 323.392L369.843 345.875L298.063 323.392L369.843 300.908L441.623 323.392ZM369.843 347.024L441.623 369.508L405.733 380.749L369.843 391.991L298.063 369.508L369.843 347.024ZM296.248 370.09L368.028 392.573L296.248 415.057L224.468 392.573L296.248 370.09ZM369.843 393.14L441.623 415.623L369.843 438.107L298.063 415.623L369.843 393.14ZM443.438 416.205L515.218 438.689L443.438 461.172L371.658 438.689L443.438 416.205ZM518.875 484.805L590.655 462.321L662.435 484.805L590.655 507.288L554.765 496.046L518.875 484.805ZM666.091 484.805L737.871 462.321L809.651 484.805L773.761 496.046L737.871 507.288L701.981 496.046L666.091 484.805ZM737.845 508.437L809.625 530.92L737.845 553.404L666.065 530.92L737.845 508.437ZM813.281 530.92L849.171 519.679L885.061 508.437L956.841 530.92L885.061 553.404L813.281 530.92ZM958.657 531.487L1030.44 553.971L994.547 565.212L958.657 576.454L886.877 553.971L958.657 531.487ZM958.657 577.603L1030.44 600.086L958.657 622.57L886.877 600.086L958.657 577.603ZM1032.28 600.668L1104.06 623.152L1032.28 645.635L960.498 623.152L1032.28 600.668ZM1105.87 623.718L1177.65 646.202L1105.87 668.685L1034.09 646.202L1105.87 623.718ZM1179.47 646.784L1251.25 669.267L1179.47 691.751L1107.69 669.267L1179.47 646.784ZM1326.68 646.784L1398.46 669.267L1326.68 691.751L1254.9 669.267L1326.68 646.784ZM1621.09 691.751L1549.31 669.267L1621.09 646.784L1656.98 658.026L1692.87 669.267L1656.98 680.509L1621.09 691.751ZM1768.28 646.784L1840.06 669.267L1768.28 691.751L1696.5 669.267L1768.28 646.784ZM2062.69 646.784L2134.47 669.267L2062.69 691.751L1990.91 669.267L2062.69 646.784ZM2138.12 669.267L2209.9 646.784L2281.68 669.267L2209.9 691.751L2138.12 669.267ZM2285.34 669.267L2321.23 658.026L2357.12 646.784L2428.9 669.267L2357.12 691.751L2285.34 669.267ZM2430.72 669.834L2502.5 692.318L2430.72 714.801L2358.94 692.318L2430.72 669.834ZM2725.12 669.834L2796.9 692.318L2725.12 714.801L2653.34 692.318L2725.12 669.834ZM2798.72 691.751L2726.94 669.267L2798.72 646.784L2870.5 669.267L2798.72 691.751ZM2945.93 691.751L2874.15 669.267L2945.93 646.784L3017.71 669.267L2981.82 680.509L2945.93 691.751ZM3093.12 646.784L3164.9 669.267L3093.12 691.751L3021.34 669.267L3093.12 646.784ZM3168.56 669.267L3240.34 646.784L3312.12 669.267L3240.34 691.751L3168.56 669.267ZM3315.78 669.267L3387.56 646.784L3459.34 669.267L3387.56 691.751L3315.78 669.267ZM3387.53 645.635L3351.64 634.393L3315.75 623.152L3387.53 600.668L3459.31 623.152L3423.42 634.393L3387.53 645.635ZM3462.97 623.152L3534.75 600.668L3606.53 623.152L3534.75 645.635L3462.97 623.152ZM3462.97 577.036L3534.75 554.552L3606.53 577.036L3534.75 599.52L3462.97 577.036ZM3610.18 577.036L3681.96 554.552L3717.85 565.794L3753.74 577.036L3681.96 599.52L3610.18 577.036ZM3683.78 553.971L3755.56 531.487L3791.45 542.729L3827.34 553.971L3755.56 576.454L3683.78 553.971ZM3974.53 507.855L3902.75 530.338L3830.97 507.855L3902.75 485.371L3974.53 507.855ZM3978.19 461.739L4049.97 439.256L4121.75 461.739L4049.97 484.223L3978.19 461.739ZM4051.78 438.689L4123.56 416.205L4195.34 438.689L4123.56 461.172L4051.78 438.689ZM4051.78 392.573L4123.56 370.09L4195.34 392.573L4123.56 415.057L4051.78 392.573ZM4199 392.573L4270.78 370.09L4342.56 392.573L4270.78 415.057L4199 392.573ZM4342.53 346.457L4306.64 357.699L4270.75 368.941L4198.97 346.457L4270.75 323.974L4306.64 335.216L4342.53 346.457ZM4197.16 345.875L4125.38 323.392L4197.16 300.908L4268.94 323.392L4197.16 345.875ZM4121.72 277.276L4085.83 288.518L4049.94 299.76L3978.16 277.276L4049.94 254.793L4121.72 277.276ZM3976.35 276.71L3904.57 254.226L3940.46 242.984L3976.35 231.743L4048.13 254.226L3976.35 276.71ZM3829.15 230.594L3757.38 208.11L3793.26 196.869L3829.15 185.627L3900.93 208.11L3829.15 230.594ZM3753.72 161.995L3717.83 173.236L3681.94 184.478L3610.16 161.995L3681.94 139.511L3717.83 150.753L3753.72 161.995ZM3608.34 161.413L3536.56 138.929L3608.34 116.446L3680.12 138.929L3608.34 161.413ZM3534.75 138.362L3462.97 115.879L3534.75 93.3954L3606.53 115.879L3534.75 138.362ZM3387.53 92.2467L3315.75 69.7632L3387.53 47.2797L3459.31 69.7632L3387.53 92.2467ZM3385.72 46.713L3313.94 69.1965L3242.16 46.713L3313.94 24.2295L3385.72 46.713ZM3238.5 46.6977L3166.72 69.1812L3094.94 46.6977L3166.72 24.2142L3238.5 46.6977ZM3091.28 46.713L3019.5 69.1965L2947.72 46.713L3019.5 24.2295L3091.28 46.713ZM2944.09 46.6977L2872.31 69.1812L2800.53 46.6977L2872.31 24.2142L2944.09 46.6977ZM2796.88 46.6977L2725.1 69.1812L2653.32 46.6977L2725.1 24.2142L2796.88 46.6977ZM2649.69 46.713L2577.91 69.1965L2542.02 57.9548L2506.13 46.713L2577.91 24.2295L2649.69 46.713ZM2502.47 46.6977L2430.69 69.1812L2358.91 46.6977L2430.69 24.2142L2502.47 46.6977ZM2283.5 24.2295L2355.28 46.713L2283.5 69.1965L2211.72 46.713L2247.61 35.4713L2283.5 24.2295ZM2136.31 69.1812L2064.53 46.6977L2136.31 24.2142L2208.09 46.6977L2136.31 69.1812ZM1913.66 46.713L1877.77 57.9548L1841.88 69.1965L1805.99 57.9548L1770.1 46.713L1841.88 24.2295L1913.66 46.713ZM1730.58 57.9395L1694.69 69.1812L1622.91 46.6977L1694.69 24.2142L1766.47 46.6977L1730.58 57.9395ZM1619.25 46.713L1547.47 69.1965L1511.58 57.9548L1475.69 46.713L1547.47 24.2295L1619.25 46.713ZM1472.03 46.6977L1400.25 69.1812L1328.47 46.6977L1400.25 24.2142L1472.03 46.6977ZM1179.47 47.2797L1251.25 69.7632L1215.36 81.005L1179.47 92.2467L1107.69 69.7632L1143.58 58.5215L1179.47 47.2797ZM1104.03 115.879L1032.25 138.362L960.472 115.879L1032.25 93.3954L1104.03 115.879ZM811.466 162.561L883.246 185.045L811.466 207.528L739.686 185.045L811.466 162.561ZM736.03 231.161L664.25 253.644L592.47 231.161L664.25 208.677L736.03 231.161ZM517.059 254.793L588.839 277.276L552.949 288.518L517.059 299.76L445.28 277.276L481.169 266.034L517.059 254.793ZM296.248 323.974L368.028 346.457L332.138 357.699L296.248 368.941L224.468 346.457L260.358 335.216L296.248 323.974ZM445.28 461.739L517.059 439.256L588.839 461.739L517.059 484.223L481.169 472.981L445.28 461.739ZM664.25 485.371L736.03 507.855L664.25 530.338L592.47 507.855L664.25 485.371ZM885.061 554.552L956.841 577.036L885.061 599.52L813.281 577.036L885.061 554.552ZM1181.31 692.318L1253.09 669.834L1324.87 692.318L1253.09 714.801L1181.31 692.318ZM1622.91 692.318L1694.69 669.834L1730.58 681.076L1766.47 692.318L1694.69 714.801L1622.91 692.318ZM1841.9 714.801L1770.12 692.318L1841.9 669.834L1913.68 692.318L1841.9 714.801ZM1989.09 669.834L2060.87 692.318L1989.09 714.801L1917.31 692.318L1989.09 669.834ZM2136.31 714.801L2064.53 692.318L2100.42 681.076L2136.31 669.834L2208.09 692.318L2136.31 714.801ZM2283.5 669.834L2355.28 692.318L2283.5 714.801L2211.72 692.318L2283.5 669.834ZM2506.15 692.318L2577.93 669.834L2649.71 692.318L2577.93 714.801L2542.04 703.559L2506.15 692.318ZM2800.56 692.318L2872.34 669.834L2944.12 692.318L2872.34 714.801L2800.56 692.318ZM2947.75 692.318L3019.53 669.834L3055.42 681.076L3091.31 692.318L3019.53 714.801L2947.75 692.318ZM3094.97 692.318L3166.75 669.834L3238.53 692.318L3166.75 714.801L3094.97 692.318ZM3389.37 646.202L3425.26 634.96L3461.15 623.718L3532.93 646.202L3461.15 668.685L3389.37 646.202ZM3536.59 600.086L3608.37 577.603L3680.15 600.086L3608.37 622.57L3536.59 600.086ZM3976.35 507.288L3940.46 496.046L3904.57 484.805L3976.35 462.321L4048.13 484.805L3976.35 507.288ZM4125.4 415.623L4197.18 393.14L4268.96 415.623L4197.18 438.107L4125.4 415.623ZM4489.75 346.457L4417.97 368.941L4346.19 346.457L4417.97 323.974L4489.75 346.457ZM4416.13 323.392L4344.35 345.875L4272.57 323.392L4344.35 300.908L4416.13 323.392ZM4342.53 300.342L4270.75 322.825L4198.97 300.342L4270.75 277.858L4342.53 300.342ZM4268.94 277.276L4197.16 299.76L4125.38 277.276L4197.16 254.793L4268.94 277.276ZM4195.34 254.226L4123.56 276.71L4051.78 254.226L4123.56 231.743L4195.34 254.226ZM4121.72 231.161L4049.94 253.644L3978.16 231.161L4049.94 208.677L4121.72 231.161ZM3976.35 230.594L3904.57 208.11L3976.35 185.627L4048.13 208.11L3976.35 230.594ZM3974.53 185.045L3902.75 207.528L3830.97 185.045L3902.75 162.561L3974.53 185.045ZM3900.91 161.995L3829.13 184.478L3757.35 161.995L3829.13 139.511L3900.91 161.995ZM3755.56 161.413L3683.78 138.929L3755.56 116.446L3827.34 138.929L3755.56 161.413ZM3753.72 115.879L3681.94 138.362L3610.16 115.879L3681.94 93.3954L3753.72 115.879ZM3680.12 92.8134L3608.34 115.297L3536.56 92.8134L3608.34 70.3299L3680.12 92.8134ZM3606.5 69.7632L3534.72 92.2467L3462.94 69.7632L3534.72 47.2797L3606.5 69.7632ZM3532.91 46.6977L3461.13 69.1812L3389.35 46.6977L3461.13 24.2142L3532.91 46.6977ZM3387.53 1.164L3459.31 23.6475L3387.53 46.131L3315.75 23.6475L3387.53 1.164ZM3240.34 1.164L3312.12 23.6475L3240.34 46.131L3168.56 23.6475L3240.34 1.164ZM3093.12 1.164L3164.9 23.6475L3129.01 34.8893L3093.12 46.131L3021.34 23.6475L3093.12 1.164ZM2945.93 1.164L3017.71 23.6475L2945.93 46.131L2874.15 23.6475L2945.93 1.164ZM2798.72 1.164L2870.5 23.6475L2834.61 34.8893L2798.72 46.131L2726.94 23.6475L2798.72 1.164ZM2651.53 1.164L2723.31 23.6475L2651.53 46.131L2579.75 23.6475L2651.53 1.164ZM2504.31 1.164L2576.09 23.6475L2504.31 46.131L2432.53 23.6475L2504.31 1.164ZM2357.1 1.164L2428.88 23.6475L2357.1 46.131L2285.32 23.6475L2357.1 1.164ZM2209.9 1.164L2281.68 23.6475L2209.9 46.131L2138.12 23.6475L2209.9 1.164ZM2134.47 23.6475L2062.69 46.131L1990.91 23.6475L2062.69 1.164L2134.47 23.6475ZM1915.5 1.164L1987.28 23.6475L1915.5 46.131L1843.72 23.6475L1915.5 1.164ZM1768.28 1.164L1840.06 23.6475L1768.28 46.131L1696.5 23.6475L1768.28 1.164ZM1621.09 1.164L1692.87 23.6475L1621.09 46.131L1549.31 23.6475L1621.09 1.164ZM1473.87 1.164L1545.65 23.6475L1473.87 46.131L1402.09 23.6475L1473.87 1.164ZM1326.68 1.164L1398.46 23.6475L1326.68 46.131L1254.9 23.6475L1326.68 1.164ZM1179.47 1.164L1251.25 23.6475L1179.47 46.131L1107.69 23.6475L1179.47 1.164ZM1105.87 24.2295L1177.65 46.713L1105.87 69.1965L1034.09 46.713L1105.87 24.2295ZM1032.28 47.2797L1104.06 69.7632L1068.17 81.005L1032.28 92.2467L960.498 69.7632L1032.28 47.2797ZM958.657 70.3452L1030.44 92.8287L958.657 115.312L886.877 92.8287L958.657 70.3452ZM885.061 93.3954L956.841 115.879L920.951 127.121L885.061 138.362L813.281 115.879L885.061 93.3954ZM811.466 116.446L883.246 138.929L811.466 161.413L739.686 138.929L811.466 116.446ZM737.845 139.511L809.625 161.995L773.735 173.236L737.845 184.478L666.065 161.995L737.845 139.511ZM664.25 162.561L736.03 185.045L664.25 207.528L592.47 185.045L664.25 162.561ZM590.655 185.627L662.435 208.11L626.545 219.352L590.655 230.594L518.875 208.11L590.655 185.627ZM517.059 208.677L588.839 231.161L517.059 253.644L445.28 231.161L517.059 208.677ZM443.438 231.743L515.218 254.226L443.438 276.71L371.658 254.226L443.438 231.743ZM369.843 254.793L441.623 277.276L405.733 288.518L369.843 299.76L298.063 277.276L369.843 254.793ZM296.248 277.858L368.028 300.342L332.138 311.583L296.248 322.825L224.468 300.342L296.248 277.858ZM222.627 300.908L294.407 323.392L222.627 345.875L150.847 323.392L222.627 300.908ZM149.032 323.974L220.812 346.457L149.032 368.941L77.2516 346.457L149.032 323.974ZM75.4364 391.991L3.65642 369.508L75.4364 347.024L147.216 369.508L111.326 380.749L75.4364 391.991ZM77.2776 392.573L149.058 370.09L220.837 392.573L149.058 415.057L77.2776 392.573ZM222.653 438.107L150.873 415.623L186.763 404.382L222.653 393.14L294.433 415.623L258.543 426.865L222.653 438.107ZM296.248 416.205L368.028 438.689L296.248 461.172L224.468 438.689L296.248 416.205ZM298.089 461.739L333.979 450.497L369.869 439.256L441.649 461.739L405.759 472.981L369.869 484.223L298.089 461.739ZM371.684 484.805L443.464 462.321L515.244 484.805L443.464 507.288L371.684 484.805ZM445.28 507.855L517.059 485.371L588.839 507.855L552.949 519.097L517.059 530.338L445.28 507.855ZM518.875 530.92L590.655 508.437L662.435 530.92L590.655 553.404L518.875 530.92ZM664.25 576.454L592.47 553.971L628.36 542.729L664.25 531.487L736.03 553.971L700.14 565.212L664.25 576.454ZM666.091 577.036L737.871 554.552L809.651 577.036L773.761 588.278L737.871 599.52L666.091 577.036ZM739.686 600.086L811.466 577.603L883.246 600.086L811.466 622.57L739.686 600.086ZM885.061 645.635L813.281 623.152L849.171 611.91L885.061 600.668L956.841 623.152L920.951 634.393L885.061 645.635ZM886.903 646.202L958.683 623.718L1030.46 646.202L958.683 668.685L886.903 646.202ZM960.498 669.267L996.388 658.026L1032.28 646.784L1104.06 669.267L1032.28 691.751L960.498 669.267ZM1105.87 669.834L1177.65 692.318L1105.87 714.801L1034.09 692.318L1105.87 669.834ZM1179.47 737.867L1107.69 715.383L1143.58 704.141L1179.47 692.9L1251.25 715.383L1179.47 737.867ZM1326.68 737.867L1254.9 715.383L1326.68 692.9L1398.46 715.383L1326.68 737.867ZM1473.87 737.867L1402.09 715.383L1437.98 704.141L1473.87 692.9L1545.65 715.383L1473.87 737.867ZM1621.09 737.867L1549.31 715.383L1621.09 692.9L1692.87 715.383L1621.09 737.867ZM1768.28 737.867L1696.5 715.383L1768.28 692.9L1840.06 715.383L1768.28 737.867ZM1915.5 737.867L1843.72 715.383L1879.61 704.141L1915.5 692.9L1987.28 715.383L1915.5 737.867ZM2062.69 737.867L1990.91 715.383L2062.69 692.9L2134.47 715.383L2062.69 737.867ZM2209.9 737.867L2138.12 715.383L2174.01 704.141L2209.9 692.9L2281.68 715.383L2209.9 737.867ZM2357.1 737.867L2285.32 715.383L2357.1 692.9L2428.88 715.383L2357.1 737.867ZM2504.31 737.867L2432.53 715.383L2504.31 692.9L2576.09 715.383L2504.31 737.867ZM2651.5 737.867L2579.72 715.383L2651.5 692.9L2723.28 715.383L2651.5 737.867ZM2798.72 737.867L2726.94 715.383L2798.72 692.9L2870.5 715.383L2798.72 737.867ZM2945.93 737.867L2874.15 715.383L2945.93 692.9L3017.71 715.383L2945.93 737.867ZM3093.12 737.867L3021.34 715.383L3093.12 692.9L3129.01 704.141L3164.9 715.383L3093.12 737.867ZM3240.34 737.867L3168.56 715.383L3240.34 692.9L3312.12 715.383L3240.34 737.867ZM3387.53 737.867L3315.75 715.383L3387.53 692.9L3459.31 715.383L3387.53 737.867ZM3461.15 714.801L3389.37 692.318L3461.15 669.834L3532.93 692.318L3461.15 714.801ZM3534.75 691.751L3462.97 669.267L3498.86 658.026L3534.75 646.784L3606.53 669.267L3534.75 691.751ZM3608.34 668.685L3536.56 646.202L3608.34 623.718L3680.12 646.202L3608.34 668.685ZM3681.94 645.635L3610.16 623.152L3681.94 600.668L3753.72 623.152L3681.94 645.635ZM3755.56 622.57L3683.78 600.086L3719.67 588.844L3755.56 577.603L3827.34 600.086L3755.56 622.57ZM3829.15 599.52L3757.38 577.036L3829.15 554.552L3900.93 577.036L3829.15 599.52ZM3902.75 576.454L3830.97 553.971L3902.75 531.487L3974.53 553.971L3902.75 576.454ZM3976.35 553.404L3904.57 530.92L3976.35 508.437L4048.13 530.92L3976.35 553.404ZM4049.97 530.338L3978.19 507.855L4014.08 496.613L4049.97 485.371L4121.75 507.855L4049.97 530.338ZM4123.56 507.288L4051.78 484.805L4123.56 462.321L4195.34 484.805L4123.56 507.288ZM4197.16 484.223L4125.38 461.739L4197.16 439.256L4268.94 461.739L4197.16 484.223ZM4270.78 461.172L4199 438.689L4270.78 416.205L4342.56 438.689L4270.78 461.172ZM4344.37 438.107L4272.59 415.623L4344.37 393.14L4416.15 415.623L4344.37 438.107ZM4417.97 415.057L4346.19 392.573L4417.97 370.09L4489.75 392.573L4417.97 415.057ZM4491.56 391.991L4419.78 369.508L4491.56 347.024L4563.34 369.508L4491.56 391.991Z" fill="#EC5E1F"/>
</svg>
