<?xml version="1.0"?>

<svg version="1.2" baseProfile="tiny" id="레이어_1" xmlns="http://www.w3.org/2000/svg" xmlns:xlink="http://www.w3.org/1999/xlink" x="0px" y="0px" viewBox="0 0 2048 833.44" overflow="visible" xml:space="preserve">
<g>
&#x9;<g>
&#x9;&#x9;<path fill="#FFFFFF" d="M810.8529,425.143c0,165.9643-134.5541,300.5064-300.5064,300.5064&#xA;&#x9;&#x9;&#x9;c-165.9683,0-300.5064-134.5422-300.5064-300.5064c0-165.9563,134.5381-300.4984,300.5064-300.4984&#xA;&#x9;&#x9;&#x9;C676.2988,124.6446,810.8529,259.1867,810.8529,425.143z"></path>
&#x9;&#x9;<g>
&#x9;&#x9;&#x9;<g>
&#x9;&#x9;&#x9;&#x9;<g>
&#x9;&#x9;&#x9;&#x9;&#x9;<g>
&#x9;&#x9;&#x9;&#x9;&#x9;&#x9;<g>
&#x9;&#x9;&#x9;&#x9;&#x9;&#x9;&#x9;<g>
&#x9;&#x9;&#x9;&#x9;&#x9;&#x9;&#x9;&#x9;<path fill="#003764" d="M651.3911,404.1976c-47.7986-32.4849-108.9935-19.2568-141.1694,29.5854&#xA;&#x9;&#x9;&#x9;&#x9;&#x9;&#x9;&#x9;&#x9;&#x9;c-26.7636,40.824-67.2715,45.9035-82.8749,45.9035c-51.1791,0-86.0985-35.9742-96.4776-73.1793&#xA;&#x9;&#x9;&#x9;&#x9;&#x9;&#x9;&#x9;&#x9;&#x9;c0,0-0.5074-1.8839-0.6402-2.3097c-4.0799-15.5522-5.1115-22.9381-5.1115-39.4403&#xA;&#x9;&#x9;&#x9;&#x9;&#x9;&#x9;&#x9;&#x9;&#x9;c0-88.9236,91.3076-187.9805,222.7038-187.9805c134.6125,0,211.6533,102.4718,231.5591,159.4386&#xA;&#x9;&#x9;&#x9;&#x9;&#x9;&#x9;&#x9;&#x9;&#x9;c-0.3985-1.0708-0.7227-2.024-1.0468-3.0283c-38.1902-111.4047-143.816-191.4778-268.2448-191.4778&#xA;&#x9;&#x9;&#x9;&#x9;&#x9;&#x9;&#x9;&#x9;&#x9;c-156.4487,0-283.3592,126.8441-283.3592,283.4257c0,139.9235,100.92,259.683,240.937,259.683&#xA;&#x9;&#x9;&#x9;&#x9;&#x9;&#x9;&#x9;&#x9;&#x9;c111.616,0,186.6592-62.578,221.032-148.8641C707.6,488.7411,694.251,433.306,651.3911,404.1976z"></path>
&#x9;&#x9;&#x9;&#x9;&#x9;&#x9;&#x9;</g>
&#x9;&#x9;&#x9;&#x9;&#x9;&#x9;&#x9;<g>
&#x9;&#x9;&#x9;&#x9;&#x9;&#x9;&#x9;&#x9;<path fill="#E4032E" d="M781.1154,341.7175c-16.6038-55.5751-94.1407-164.9407-233.2941-164.9407&#xA;&#x9;&#x9;&#x9;&#x9;&#x9;&#x9;&#x9;&#x9;&#x9;c-131.3962,0-222.7038,99.0569-222.7038,187.9805c0,16.5022,1.0316,23.8881,5.1115,39.4403&#xA;&#x9;&#x9;&#x9;&#x9;&#x9;&#x9;&#x9;&#x9;&#x9;c-1.7078-6.8113-2.5793-13.5907-2.5793-20.2219c0-92.6361,92.7298-156.8049,188.0661-156.8049&#xA;&#x9;&#x9;&#x9;&#x9;&#x9;&#x9;&#x9;&#x9;&#x9;c129.0913,0,233.7119,104.6246,233.7119,233.6615c0,101.1505-58.2249,188.7656-142.7796,230.8203v0.0781&#xA;&#x9;&#x9;&#x9;&#x9;&#x9;&#x9;&#x9;&#x9;&#x9;c109.0406-39.4913,186.9057-143.9443,186.9057-266.5957C793.5537,396.1049,789.6618,370.5018,781.1154,341.7175z"></path>
&#x9;&#x9;&#x9;&#x9;&#x9;&#x9;&#x9;</g>
&#x9;&#x9;&#x9;&#x9;&#x9;&#x9;</g>
&#x9;&#x9;&#x9;&#x9;&#x9;</g>
&#x9;&#x9;&#x9;&#x9;</g>
&#x9;&#x9;&#x9;</g>
&#x9;&#x9;</g>
&#x9;</g>
&#x9;<g>
&#x9;&#x9;<path fill="#575757" d="M1070.8007,529.7319h-35.1427V332.548H926.9783v-31.5626h143.8223V529.7319z M1141.7343,283.4148h35.1412&#xA;&#x9;&#x9;&#x9;v283.4119h-35.1412V283.4148z"></path>
&#x9;&#x9;<path fill="#575757" d="M1327.0905,281.7868l87.2032,125.2763l-27.9824,19.1957l-59.2208-85.9024l-58.5712,88.1815&#xA;&#x9;&#x9;&#x9;l-28.6322-19.1986L1327.0905,281.7868z M1465.3805,506.629c0,9.5497-1.9521,18.4964-5.8564,26.8457&#xA;&#x9;&#x9;&#x9;c-3.9056,8.3493-9.1108,15.6709-15.6199,21.9647c-6.7256,6.2881-14.5907,11.2768-23.5912,14.9687&#xA;&#x9;&#x9;&#x9;c-9.0034,3.6863-18.4951,5.5294-28.4695,5.5294c-9.9816,0-19.5242-1.8431-28.635-5.5294&#xA;&#x9;&#x9;&#x9;c-9.111-3.6919-17.0327-8.6805-23.754-14.9687c-6.5077-6.2938-11.7129-13.6154-15.6172-21.9647&#xA;&#x9;&#x9;&#x9;c-3.9056-8.3493-5.8578-17.296-5.8578-26.8457c0-9.5413,1.9521-18.5446,5.8578-27.0043&#xA;&#x9;&#x9;&#x9;c3.9043-8.4597,9.1095-15.8322,15.6172-22.1261c6.7213-6.291,14.6431-11.2768,23.754-14.9687&#xA;&#x9;&#x9;&#x9;c9.1108-3.6863,18.6534-5.5322,28.635-5.5322c9.9744,0,19.4661,1.8459,28.4695,5.5322&#xA;&#x9;&#x9;&#x9;c9.0005,3.6919,16.8656,8.6777,23.5912,14.9687c6.509,6.2939,11.7142,13.6664,15.6199,22.1261&#xA;&#x9;&#x9;&#x9;C1463.4283,488.0844,1465.3805,497.0878,1465.3805,506.629z M1430.889,506.3034c0-10.6256-3.9043-19.7903-11.7142-27.4913&#xA;&#x9;&#x9;&#x9;c-7.8099-7.6981-17.0327-11.5514-27.6569-11.5514c-10.6313,0-19.7988,3.8533-27.4955,11.5514&#xA;&#x9;&#x9;&#x9;c-7.7039,7.701-11.5529,16.8657-11.5529,27.4913c0,10.6313,3.849,19.7422,11.5529,27.3327&#xA;&#x9;&#x9;&#x9;c7.6967,7.5934,16.8641,11.3901,27.4955,11.3901c10.6241,0,19.8469-3.7967,27.6569-11.3901&#xA;&#x9;&#x9;&#x9;C1426.9847,526.0456,1430.889,516.9347,1430.889,506.3034z M1479.6965,433.7447h-35.1412V283.4148h35.1412v54.991h40.6749v34.8156&#xA;&#x9;&#x9;&#x9;h-40.6749V433.7447z"></path>
&#x9;&#x9;<path fill="#575757" d="M1571.0463,337.429V307.82h66.381v-27.6583h37.4189V307.82h63.1251v29.609h-68.3317l70.9351,72.236&#xA;&#x9;&#x9;&#x9;l-23.4285,21.8005l-61.173-63.4479l-60.1976,68.6545l-24.0782-22.4517l70.9337-76.7915H1571.0463z M1797.1923,506.629&#xA;&#x9;&#x9;&#x9;c0,9.5497-1.9536,18.4964-5.8579,26.8457c-3.9042,8.3493-9.1108,15.6709-15.6171,21.9647&#xA;&#x9;&#x9;&#x9;c-6.7269,6.2881-14.5922,11.2768-23.5912,14.9687c-9.0048,3.6863-18.4965,5.5294-28.4723,5.5294&#xA;&#x9;&#x9;&#x9;c-9.9801,0-19.5227-1.8431-28.6337-5.5294c-9.1108-3.6919-17.0327-8.6805-23.754-14.9687&#xA;&#x9;&#x9;&#x9;c-6.5076-6.2938-11.7142-13.6154-15.6184-21.9647c-3.9043-8.3493-5.8579-17.296-5.8579-26.8457&#xA;&#x9;&#x9;&#x9;c0-9.5413,1.9536-18.5446,5.8579-27.0043c3.9042-8.4597,9.1108-15.8322,15.6184-22.1261&#xA;&#x9;&#x9;&#x9;c6.7213-6.291,14.6432-11.2768,23.754-14.9687c9.111-3.6863,18.6536-5.5322,28.6337-5.5322&#xA;&#x9;&#x9;&#x9;c9.9758,0,19.4675,1.8459,28.4723,5.5322c8.999,3.6919,16.8643,8.6777,23.5912,14.9687&#xA;&#x9;&#x9;&#x9;c6.5062,6.2939,11.7129,13.6664,15.6171,22.1261C1795.2386,488.0844,1797.1923,497.0878,1797.1923,506.629z M1762.7007,506.3034&#xA;&#x9;&#x9;&#x9;c0-10.6256-3.9042-19.7903-11.7141-27.4913c-7.8086-7.6981-17.0327-11.5514-27.6583-11.5514&#xA;&#x9;&#x9;&#x9;c-10.6313,0-19.7974,3.8533-27.4941,11.5514c-7.7023,7.701-11.5514,16.8657-11.5514,27.4913&#xA;&#x9;&#x9;&#x9;c0,10.6313,3.8491,19.7422,11.5514,27.3327c7.6968,7.5934,16.8628,11.3901,27.4941,11.3901&#xA;&#x9;&#x9;&#x9;c10.6256,0,19.8497-3.7967,27.6583-11.3901C1758.7965,526.0456,1762.7007,516.9347,1762.7007,506.3034z M1786.1278,441.8788&#xA;&#x9;&#x9;&#x9;v-64.4247h-49.4589v-30.263h49.4589v-63.7763h35.1426v158.464H1786.1278z"></path>
&#x9;</g>
</g>
</svg>