<?xml version="1.0"?>

<svg version="1.2" baseProfile="tiny" id="레이어_1" xmlns="http://www.w3.org/2000/svg" xmlns:xlink="http://www.w3.org/1999/xlink" x="0px" y="0px" viewBox="0 0 2048 655.83" overflow="visible" xml:space="preserve">
<g>
&#x9;<g>
&#x9;&#x9;<path fill="#FFFFFF" d="M638.0546,334.543c0,130.5961-105.8798,236.4664-236.4664,236.4664&#xA;&#x9;&#x9;&#x9;c-130.5993,0-236.4664-105.8703-236.4664-236.4664c0-130.5898,105.8671-236.4601,236.4664-236.4601&#xA;&#x9;&#x9;&#x9;C532.1748,98.0829,638.0546,203.9532,638.0546,334.543z"></path>
&#x9;&#x9;<g>
&#x9;&#x9;&#x9;<g>
&#x9;&#x9;&#x9;&#x9;<g>
&#x9;&#x9;&#x9;&#x9;&#x9;<g>
&#x9;&#x9;&#x9;&#x9;&#x9;&#x9;<g>
&#x9;&#x9;&#x9;&#x9;&#x9;&#x9;&#x9;<g>
&#x9;&#x9;&#x9;&#x9;&#x9;&#x9;&#x9;&#x9;<path fill="#003764" d="M512.5751,318.0612c-37.6124-25.5621-85.7662-15.153-111.0852,23.2806&#xA;&#x9;&#x9;&#x9;&#x9;&#x9;&#x9;&#x9;&#x9;&#x9;c-21.0601,32.1241-52.9355,36.1212-65.2137,36.1212c-40.2725,0-67.7503-28.3079-75.9175-57.5843&#xA;&#x9;&#x9;&#x9;&#x9;&#x9;&#x9;&#x9;&#x9;&#x9;c0,0-0.3993-1.4824-0.5038-1.8174c-3.2104-12.2379-4.0222-18.0499-4.0222-31.0353&#xA;&#x9;&#x9;&#x9;&#x9;&#x9;&#x9;&#x9;&#x9;&#x9;c0-69.9733,71.8494-147.9205,175.2441-147.9205c105.9257,0,166.5485,80.6343,182.2122,125.4612&#xA;&#x9;&#x9;&#x9;&#x9;&#x9;&#x9;&#x9;&#x9;&#x9;c-0.3136-0.8426-0.5687-1.5927-0.8237-2.383c-30.0516-87.6636-113.1678-150.6725-211.08-150.6725&#xA;&#x9;&#x9;&#x9;&#x9;&#x9;&#x9;&#x9;&#x9;&#x9;c-123.1084,0-222.9734,99.8127-222.9734,223.0257c0,110.1049,79.4133,204.3428,189.5917,204.3428&#xA;&#x9;&#x9;&#x9;&#x9;&#x9;&#x9;&#x9;&#x9;&#x9;c87.8299,0,146.8808-49.2422,173.9285-117.1401C556.8055,384.5879,546.3013,340.9664,512.5751,318.0612z"></path>
&#x9;&#x9;&#x9;&#x9;&#x9;&#x9;&#x9;</g>
&#x9;&#x9;&#x9;&#x9;&#x9;&#x9;&#x9;<g>
&#x9;&#x9;&#x9;&#x9;&#x9;&#x9;&#x9;&#x9;<path fill="#E4032E" d="M614.6543,268.896c-13.0654-43.7317-74.0786-129.7907-183.5775-129.7907&#xA;&#x9;&#x9;&#x9;&#x9;&#x9;&#x9;&#x9;&#x9;&#x9;c-103.3947,0-175.2441,77.9472-175.2441,147.9205c0,12.9854,0.8118,18.7974,4.0222,31.0353&#xA;&#x9;&#x9;&#x9;&#x9;&#x9;&#x9;&#x9;&#x9;&#x9;c-1.3439-5.3598-2.0297-10.6944-2.0297-15.9125c0-72.8947,72.9684-123.3886,147.9879-123.3886&#xA;&#x9;&#x9;&#x9;&#x9;&#x9;&#x9;&#x9;&#x9;&#x9;c101.5811,0,183.9063,82.3284,183.9063,183.8666c0,79.5946-45.8168,148.5383-112.3523,181.6309v0.0615&#xA;&#x9;&#x9;&#x9;&#x9;&#x9;&#x9;&#x9;&#x9;&#x9;c85.8033-31.0754,147.0748-113.2688,147.0748-209.7823C624.4419,311.6932,621.3794,291.5462,614.6543,268.896z"></path>
&#x9;&#x9;&#x9;&#x9;&#x9;&#x9;&#x9;</g>
&#x9;&#x9;&#x9;&#x9;&#x9;&#x9;</g>
&#x9;&#x9;&#x9;&#x9;&#x9;</g>
&#x9;&#x9;&#x9;&#x9;</g>
&#x9;&#x9;&#x9;</g>
&#x9;&#x9;</g>
&#x9;</g>
&#x9;<g>
&#x9;&#x9;<path fill="#575757" d="M819.0483,368.7072v-32.5179h-88.3348v-24.3248h204.8362v24.3248h-88.5918v32.5179h72.2032v77.8374&#xA;&#x9;&#x9;&#x9;h-27.6525v-53.5127H744.5387v-24.3247H819.0483z M918.6494,227.6263v66.3143h-27.6525V251.951H746.5881v-24.3247H918.6494z"></path>
&#x9;&#x9;<path fill="#575757" d="M980.61,364.6106V234.0271h171.8065v24.3248h-144.1539v28.6761h143.1302v23.8129h-143.1302v29.4449&#xA;&#x9;&#x9;&#x9;h144.9227v24.3247h-72.7173v40.4541h88.5918v24.5817H964.2236v-24.5817h88.3348v-40.4541H980.61z"></path>
&#x9;&#x9;<path fill="#575757" d="M1309.6245,335.9323h27.1407v69.1324h65.8047v24.5817h-204.8362v-24.5817h48.1355v-69.1324h27.1407&#xA;&#x9;&#x9;&#x9;v69.1324h36.6145V335.9323z M1358.0171,366.146V259.8872h-144.4087v-24.5796h172.0612V366.146H1358.0171z"></path>
&#x9;&#x9;<path fill="#575757" d="M1447.6302,315.7063v-90.3842h171.8065v22.5323h-144.1539v11.778h143.1302v21.7635h-143.1302v12.2898&#xA;&#x9;&#x9;&#x9;h144.9227v22.0205h-72.7173v14.337h88.5918v22.7893h-204.8362v-22.7893h88.3348v-14.337H1447.6302z M1588.1995,406.8571&#xA;&#x9;&#x9;&#x9;c0,6.6578-1.3678,12.9301-4.0967,18.8191c-2.7332,5.889-6.5729,11.1377-11.5232,15.7483&#xA;&#x9;&#x9;&#x9;c-5.1201,4.4363-10.97,7.9776-17.5385,10.6259c-6.5728,2.6439-13.6989,3.9681-21.3802,3.9681&#xA;&#x9;&#x9;&#x9;c-7.5137,0-14.594-1.3242-21.2517-3.9681c-6.6578-2.6483-12.4618-6.1895-17.41-10.6259&#xA;&#x9;&#x9;&#x9;c-5.1223-4.6106-9.0513-9.8593-11.778-15.7483c-2.7332-5.889-4.0966-12.1613-4.0966-18.8191&#xA;&#x9;&#x9;&#x9;c0-6.8255,1.3634-13.1849,4.0966-19.076c2.7267-5.889,6.6556-11.1377,11.778-15.7461c4.9482-4.4363,10.7522-7.9776,17.41-10.6259&#xA;&#x9;&#x9;&#x9;c6.6577-2.644,13.738-3.9681,21.2517-3.9681c7.6814,0,14.8075,1.3242,21.3802,3.9681&#xA;&#x9;&#x9;&#x9;c6.5685,2.6483,12.4183,6.1895,17.5385,10.6259c4.9503,4.6084,8.79,9.8571,11.5232,15.7461&#xA;&#x9;&#x9;&#x9;C1586.8317,393.6722,1588.1995,400.0316,1588.1995,406.8571z M1560.8016,406.6023c0-7.3373-2.6875-13.6118-8.0647-18.8212&#xA;&#x9;&#x9;&#x9;c-5.3772-5.203-11.7388-7.8077-19.076-7.8077c-7.3416,0-13.6989,2.6047-19.076,7.8077&#xA;&#x9;&#x9;&#x9;c-5.375,5.2095-8.0647,11.4839-8.0647,18.8212c0,7.3395,2.6897,13.614,8.0647,18.8191c5.3772,5.2051,11.7345,7.8077,19.076,7.8077&#xA;&#x9;&#x9;&#x9;c7.3373,0,13.6989-2.6026,19.076-7.8077C1558.1141,420.2162,1560.8016,413.9417,1560.8016,406.6023z"></path>
&#x9;&#x9;<path fill="#575757" d="M1664.7518,364.0988h204.8362v24.5796h-88.5918v57.3545h-27.9095v-57.3545h-88.3348V364.0988z&#xA;&#x9;&#x9;&#x9; M1708.536,255.0218h117.2679v-28.1644h27.3955v107.2824h-172.0612V226.8575h27.3977V255.0218z M1825.804,279.0917H1708.536&#xA;&#x9;&#x9;&#x9;v30.7256h117.2679V279.0917z"></path>
&#x9;</g>
</g>
</svg>